<svg xmlns="http://www.w3.org/2000/svg" version="1.1" xmlns:xlink="http://www.w3.org/1999/xlink" xmlns:svgjs="http://svgjs.dev/svgjs" viewBox="0 0 2400 800"><defs><linearGradient x1="50%" y1="0%" x2="50%" y2="100%" id="sssurf-grad"><stop stop-color="hsla(185, 0%, 0%, 1)" stop-opacity="1" offset="0%"></stop><stop stop-color="hsla(0, 0%, 35%, 1)" stop-opacity="1" offset="100%"></stop></linearGradient></defs><g fill="url(#sssurf-grad)" transform="matrix(1,0,0,1,11.0928955078125,-919.9972381591797)"><path d="M-10,10C13.822463768115941,25.625,58.78623188405797,105,104.34782608695652,85C149.90942028985506,65,165.2173913043478,-103.70833333333333,208.69565217391303,-86C252.17391304347825,-68.29166666666667,269.5652173913044,152.91666666666666,313.04347826086956,170C356.52173913043475,187.08333333333334,373.9130434782608,15.375,417.39130434782606,-4C460.8695652173913,-23.375,478.2608695652174,83.875,521.7391304347826,77C565.2173913043479,70.125,582.6086956521739,-39.5,626.0869565217391,-37C669.5652173913044,-34.5,686.9565217391304,105.25,730.4347826086956,89C773.9130434782609,72.75,791.3043478260869,-140.20833333333334,834.7826086956521,-115C878.2608695652174,-89.79166666666666,895.6521739130434,193.33333333333334,939.1304347826086,210C982.6086956521739,226.66666666666666,1000,-5,1043.4782608695652,-35C1086.9565217391305,-65,1104.3478260869565,56.625,1147.8260869565217,66C1191.304347826087,75.375,1208.695652173913,-10.833333333333336,1252.1739130434783,10C1295.6521739130435,30.833333333333336,1313.0434782608695,178.70833333333334,1356.5217391304348,166C1400,153.29166666666666,1417.391304347826,-26.833333333333336,1460.8695652173913,-51C1504.3478260869565,-75.16666666666666,1521.7391304347825,61.45833333333333,1565.2173913043478,50C1608.695652173913,38.54166666666667,1626.086956521739,-108.08333333333333,1669.5652173913043,-106C1713.0434782608695,-103.91666666666667,1730.4347826086955,70.41666666666667,1773.9130434782608,60C1817.391304347826,49.58333333333333,1834.782608695652,-193.91666666666666,1878.2608695652173,-156C1921.7391304347825,-118.08333333333334,1939.1304347826085,205.33333333333334,1982.6086956521738,242C2026.086956521739,278.6666666666667,2043.4782608695652,33.33333333333333,2086.9565217391305,20C2130.434782608696,6.666666666666668,2147.826086956522,206.95833333333334,2191.304347826087,178C2234.782608695652,149.04166666666666,2252.1739130434785,-100.66666666666667,2295.6521739130435,-119C2339.1304347826085,-137.33333333333334,2326.177536231884,-18.125,2400,90C2473.822463768116,198.125,3254.1666666666665,231.25,2650,400C2045.8333333333335,568.75,156.25,795.8333333333334,-500,900" transform="matrix(1,0,0,1,0,150)" opacity="0.05"></path><path d="M-10,10C13.822463768115941,25.625,58.78623188405797,105,104.34782608695652,85C149.90942028985506,65,165.2173913043478,-103.70833333333333,208.69565217391303,-86C252.17391304347825,-68.29166666666667,269.5652173913044,152.91666666666666,313.04347826086956,170C356.52173913043475,187.08333333333334,373.9130434782608,15.375,417.39130434782606,-4C460.8695652173913,-23.375,478.2608695652174,83.875,521.7391304347826,77C565.2173913043479,70.125,582.6086956521739,-39.5,626.0869565217391,-37C669.5652173913044,-34.5,686.9565217391304,105.25,730.4347826086956,89C773.9130434782609,72.75,791.3043478260869,-140.20833333333334,834.7826086956521,-115C878.2608695652174,-89.79166666666666,895.6521739130434,193.33333333333334,939.1304347826086,210C982.6086956521739,226.66666666666666,1000,-5,1043.4782608695652,-35C1086.9565217391305,-65,1104.3478260869565,56.625,1147.8260869565217,66C1191.304347826087,75.375,1208.695652173913,-10.833333333333336,1252.1739130434783,10C1295.6521739130435,30.833333333333336,1313.0434782608695,178.70833333333334,1356.5217391304348,166C1400,153.29166666666666,1417.391304347826,-26.833333333333336,1460.8695652173913,-51C1504.3478260869565,-75.16666666666666,1521.7391304347825,61.45833333333333,1565.2173913043478,50C1608.695652173913,38.54166666666667,1626.086956521739,-108.08333333333333,1669.5652173913043,-106C1713.0434782608695,-103.91666666666667,1730.4347826086955,70.41666666666667,1773.9130434782608,60C1817.391304347826,49.58333333333333,1834.782608695652,-193.91666666666666,1878.2608695652173,-156C1921.7391304347825,-118.08333333333334,1939.1304347826085,205.33333333333334,1982.6086956521738,242C2026.086956521739,278.6666666666667,2043.4782608695652,33.33333333333333,2086.9565217391305,20C2130.434782608696,6.666666666666668,2147.826086956522,206.95833333333334,2191.304347826087,178C2234.782608695652,149.04166666666666,2252.1739130434785,-100.66666666666667,2295.6521739130435,-119C2339.1304347826085,-137.33333333333334,2326.177536231884,-18.125,2400,90C2473.822463768116,198.125,3254.1666666666665,231.25,2650,400C2045.8333333333335,568.75,156.25,795.8333333333334,-500,900" transform="matrix(1,0,0,1,0,300)" opacity="0.11"></path><path d="M-10,10C13.822463768115941,25.625,58.78623188405797,105,104.34782608695652,85C149.90942028985506,65,165.2173913043478,-103.70833333333333,208.69565217391303,-86C252.17391304347825,-68.29166666666667,269.5652173913044,152.91666666666666,313.04347826086956,170C356.52173913043475,187.08333333333334,373.9130434782608,15.375,417.39130434782606,-4C460.8695652173913,-23.375,478.2608695652174,83.875,521.7391304347826,77C565.2173913043479,70.125,582.6086956521739,-39.5,626.0869565217391,-37C669.5652173913044,-34.5,686.9565217391304,105.25,730.4347826086956,89C773.9130434782609,72.75,791.3043478260869,-140.20833333333334,834.7826086956521,-115C878.2608695652174,-89.79166666666666,895.6521739130434,193.33333333333334,939.1304347826086,210C982.6086956521739,226.66666666666666,1000,-5,1043.4782608695652,-35C1086.9565217391305,-65,1104.3478260869565,56.625,1147.8260869565217,66C1191.304347826087,75.375,1208.695652173913,-10.833333333333336,1252.1739130434783,10C1295.6521739130435,30.833333333333336,1313.0434782608695,178.70833333333334,1356.5217391304348,166C1400,153.29166666666666,1417.391304347826,-26.833333333333336,1460.8695652173913,-51C1504.3478260869565,-75.16666666666666,1521.7391304347825,61.45833333333333,1565.2173913043478,50C1608.695652173913,38.54166666666667,1626.086956521739,-108.08333333333333,1669.5652173913043,-106C1713.0434782608695,-103.91666666666667,1730.4347826086955,70.41666666666667,1773.9130434782608,60C1817.391304347826,49.58333333333333,1834.782608695652,-193.91666666666666,1878.2608695652173,-156C1921.7391304347825,-118.08333333333334,1939.1304347826085,205.33333333333334,1982.6086956521738,242C2026.086956521739,278.6666666666667,2043.4782608695652,33.33333333333333,2086.9565217391305,20C2130.434782608696,6.666666666666668,2147.826086956522,206.95833333333334,2191.304347826087,178C2234.782608695652,149.04166666666666,2252.1739130434785,-100.66666666666667,2295.6521739130435,-119C2339.1304347826085,-137.33333333333334,2326.177536231884,-18.125,2400,90C2473.822463768116,198.125,3254.1666666666665,231.25,2650,400C2045.8333333333335,568.75,156.25,795.8333333333334,-500,900" transform="matrix(1,0,0,1,0,450)" opacity="0.17"></path><path d="M-10,10C13.822463768115941,25.625,58.78623188405797,105,104.34782608695652,85C149.90942028985506,65,165.2173913043478,-103.70833333333333,208.69565217391303,-86C252.17391304347825,-68.29166666666667,269.5652173913044,152.91666666666666,313.04347826086956,170C356.52173913043475,187.08333333333334,373.9130434782608,15.375,417.39130434782606,-4C460.8695652173913,-23.375,478.2608695652174,83.875,521.7391304347826,77C565.2173913043479,70.125,582.6086956521739,-39.5,626.0869565217391,-37C669.5652173913044,-34.5,686.9565217391304,105.25,730.4347826086956,89C773.9130434782609,72.75,791.3043478260869,-140.20833333333334,834.7826086956521,-115C878.2608695652174,-89.79166666666666,895.6521739130434,193.33333333333334,939.1304347826086,210C982.6086956521739,226.66666666666666,1000,-5,1043.4782608695652,-35C1086.9565217391305,-65,1104.3478260869565,56.625,1147.8260869565217,66C1191.304347826087,75.375,1208.695652173913,-10.833333333333336,1252.1739130434783,10C1295.6521739130435,30.833333333333336,1313.0434782608695,178.70833333333334,1356.5217391304348,166C1400,153.29166666666666,1417.391304347826,-26.833333333333336,1460.8695652173913,-51C1504.3478260869565,-75.16666666666666,1521.7391304347825,61.45833333333333,1565.2173913043478,50C1608.695652173913,38.54166666666667,1626.086956521739,-108.08333333333333,1669.5652173913043,-106C1713.0434782608695,-103.91666666666667,1730.4347826086955,70.41666666666667,1773.9130434782608,60C1817.391304347826,49.58333333333333,1834.782608695652,-193.91666666666666,1878.2608695652173,-156C1921.7391304347825,-118.08333333333334,1939.1304347826085,205.33333333333334,1982.6086956521738,242C2026.086956521739,278.6666666666667,2043.4782608695652,33.33333333333333,2086.9565217391305,20C2130.434782608696,6.666666666666668,2147.826086956522,206.95833333333334,2191.304347826087,178C2234.782608695652,149.04166666666666,2252.1739130434785,-100.66666666666667,2295.6521739130435,-119C2339.1304347826085,-137.33333333333334,2326.177536231884,-18.125,2400,90C2473.822463768116,198.125,3254.1666666666665,231.25,2650,400C2045.8333333333335,568.75,156.25,795.8333333333334,-500,900" transform="matrix(1,0,0,1,0,600)" opacity="0.23"></path><path d="M-10,10C13.822463768115941,25.625,58.78623188405797,105,104.34782608695652,85C149.90942028985506,65,165.2173913043478,-103.70833333333333,208.69565217391303,-86C252.17391304347825,-68.29166666666667,269.5652173913044,152.91666666666666,313.04347826086956,170C356.52173913043475,187.08333333333334,373.9130434782608,15.375,417.39130434782606,-4C460.8695652173913,-23.375,478.2608695652174,83.875,521.7391304347826,77C565.2173913043479,70.125,582.6086956521739,-39.5,626.0869565217391,-37C669.5652173913044,-34.5,686.9565217391304,105.25,730.4347826086956,89C773.9130434782609,72.75,791.3043478260869,-140.20833333333334,834.7826086956521,-115C878.2608695652174,-89.79166666666666,895.6521739130434,193.33333333333334,939.1304347826086,210C982.6086956521739,226.66666666666666,1000,-5,1043.4782608695652,-35C1086.9565217391305,-65,1104.3478260869565,56.625,1147.8260869565217,66C1191.304347826087,75.375,1208.695652173913,-10.833333333333336,1252.1739130434783,10C1295.6521739130435,30.833333333333336,1313.0434782608695,178.70833333333334,1356.5217391304348,166C1400,153.29166666666666,1417.391304347826,-26.833333333333336,1460.8695652173913,-51C1504.3478260869565,-75.16666666666666,1521.7391304347825,61.45833333333333,1565.2173913043478,50C1608.695652173913,38.54166666666667,1626.086956521739,-108.08333333333333,1669.5652173913043,-106C1713.0434782608695,-103.91666666666667,1730.4347826086955,70.41666666666667,1773.9130434782608,60C1817.391304347826,49.58333333333333,1834.782608695652,-193.91666666666666,1878.2608695652173,-156C1921.7391304347825,-118.08333333333334,1939.1304347826085,205.33333333333334,1982.6086956521738,242C2026.086956521739,278.6666666666667,2043.4782608695652,33.33333333333333,2086.9565217391305,20C2130.434782608696,6.666666666666668,2147.826086956522,206.95833333333334,2191.304347826087,178C2234.782608695652,149.04166666666666,2252.1739130434785,-100.66666666666667,2295.6521739130435,-119C2339.1304347826085,-137.33333333333334,2326.177536231884,-18.125,2400,90C2473.822463768116,198.125,3254.1666666666665,231.25,2650,400C2045.8333333333335,568.75,156.25,795.8333333333334,-500,900" transform="matrix(1,0,0,1,0,750)" opacity="0.29"></path><path d="M-10,10C13.822463768115941,25.625,58.78623188405797,105,104.34782608695652,85C149.90942028985506,65,165.2173913043478,-103.70833333333333,208.69565217391303,-86C252.17391304347825,-68.29166666666667,269.5652173913044,152.91666666666666,313.04347826086956,170C356.52173913043475,187.08333333333334,373.9130434782608,15.375,417.39130434782606,-4C460.8695652173913,-23.375,478.2608695652174,83.875,521.7391304347826,77C565.2173913043479,70.125,582.6086956521739,-39.5,626.0869565217391,-37C669.5652173913044,-34.5,686.9565217391304,105.25,730.4347826086956,89C773.9130434782609,72.75,791.3043478260869,-140.20833333333334,834.7826086956521,-115C878.2608695652174,-89.79166666666666,895.6521739130434,193.33333333333334,939.1304347826086,210C982.6086956521739,226.66666666666666,1000,-5,1043.4782608695652,-35C1086.9565217391305,-65,1104.3478260869565,56.625,1147.8260869565217,66C1191.304347826087,75.375,1208.695652173913,-10.833333333333336,1252.1739130434783,10C1295.6521739130435,30.833333333333336,1313.0434782608695,178.70833333333334,1356.5217391304348,166C1400,153.29166666666666,1417.391304347826,-26.833333333333336,1460.8695652173913,-51C1504.3478260869565,-75.16666666666666,1521.7391304347825,61.45833333333333,1565.2173913043478,50C1608.695652173913,38.54166666666667,1626.086956521739,-108.08333333333333,1669.5652173913043,-106C1713.0434782608695,-103.91666666666667,1730.4347826086955,70.41666666666667,1773.9130434782608,60C1817.391304347826,49.58333333333333,1834.782608695652,-193.91666666666666,1878.2608695652173,-156C1921.7391304347825,-118.08333333333334,1939.1304347826085,205.33333333333334,1982.6086956521738,242C2026.086956521739,278.6666666666667,2043.4782608695652,33.33333333333333,2086.9565217391305,20C2130.434782608696,6.666666666666668,2147.826086956522,206.95833333333334,2191.304347826087,178C2234.782608695652,149.04166666666666,2252.1739130434785,-100.66666666666667,2295.6521739130435,-119C2339.1304347826085,-137.33333333333334,2326.177536231884,-18.125,2400,90C2473.822463768116,198.125,3254.1666666666665,231.25,2650,400C2045.8333333333335,568.75,156.25,795.8333333333334,-500,900" transform="matrix(1,0,0,1,0,900)" opacity="0.35"></path><path d="M-10,10C13.822463768115941,25.625,58.78623188405797,105,104.34782608695652,85C149.90942028985506,65,165.2173913043478,-103.70833333333333,208.69565217391303,-86C252.17391304347825,-68.29166666666667,269.5652173913044,152.91666666666666,313.04347826086956,170C356.52173913043475,187.08333333333334,373.9130434782608,15.375,417.39130434782606,-4C460.8695652173913,-23.375,478.2608695652174,83.875,521.7391304347826,77C565.2173913043479,70.125,582.6086956521739,-39.5,626.0869565217391,-37C669.5652173913044,-34.5,686.9565217391304,105.25,730.4347826086956,89C773.9130434782609,72.75,791.3043478260869,-140.20833333333334,834.7826086956521,-115C878.2608695652174,-89.79166666666666,895.6521739130434,193.33333333333334,939.1304347826086,210C982.6086956521739,226.66666666666666,1000,-5,1043.4782608695652,-35C1086.9565217391305,-65,1104.3478260869565,56.625,1147.8260869565217,66C1191.304347826087,75.375,1208.695652173913,-10.833333333333336,1252.1739130434783,10C1295.6521739130435,30.833333333333336,1313.0434782608695,178.70833333333334,1356.5217391304348,166C1400,153.29166666666666,1417.391304347826,-26.833333333333336,1460.8695652173913,-51C1504.3478260869565,-75.16666666666666,1521.7391304347825,61.45833333333333,1565.2173913043478,50C1608.695652173913,38.54166666666667,1626.086956521739,-108.08333333333333,1669.5652173913043,-106C1713.0434782608695,-103.91666666666667,1730.4347826086955,70.41666666666667,1773.9130434782608,60C1817.391304347826,49.58333333333333,1834.782608695652,-193.91666666666666,1878.2608695652173,-156C1921.7391304347825,-118.08333333333334,1939.1304347826085,205.33333333333334,1982.6086956521738,242C2026.086956521739,278.6666666666667,2043.4782608695652,33.33333333333333,2086.9565217391305,20C2130.434782608696,6.666666666666668,2147.826086956522,206.95833333333334,2191.304347826087,178C2234.782608695652,149.04166666666666,2252.1739130434785,-100.66666666666667,2295.6521739130435,-119C2339.1304347826085,-137.33333333333334,2326.177536231884,-18.125,2400,90C2473.822463768116,198.125,3254.1666666666665,231.25,2650,400C2045.8333333333335,568.75,156.25,795.8333333333334,-500,900" transform="matrix(1,0,0,1,0,1050)" opacity="0.41"></path><path d="M-10,10C13.822463768115941,25.625,58.78623188405797,105,104.34782608695652,85C149.90942028985506,65,165.2173913043478,-103.70833333333333,208.69565217391303,-86C252.17391304347825,-68.29166666666667,269.5652173913044,152.91666666666666,313.04347826086956,170C356.52173913043475,187.08333333333334,373.9130434782608,15.375,417.39130434782606,-4C460.8695652173913,-23.375,478.2608695652174,83.875,521.7391304347826,77C565.2173913043479,70.125,582.6086956521739,-39.5,626.0869565217391,-37C669.5652173913044,-34.5,686.9565217391304,105.25,730.4347826086956,89C773.9130434782609,72.75,791.3043478260869,-140.20833333333334,834.7826086956521,-115C878.2608695652174,-89.79166666666666,895.6521739130434,193.33333333333334,939.1304347826086,210C982.6086956521739,226.66666666666666,1000,-5,1043.4782608695652,-35C1086.9565217391305,-65,1104.3478260869565,56.625,1147.8260869565217,66C1191.304347826087,75.375,1208.695652173913,-10.833333333333336,1252.1739130434783,10C1295.6521739130435,30.833333333333336,1313.0434782608695,178.70833333333334,1356.5217391304348,166C1400,153.29166666666666,1417.391304347826,-26.833333333333336,1460.8695652173913,-51C1504.3478260869565,-75.16666666666666,1521.7391304347825,61.45833333333333,1565.2173913043478,50C1608.695652173913,38.54166666666667,1626.086956521739,-108.08333333333333,1669.5652173913043,-106C1713.0434782608695,-103.91666666666667,1730.4347826086955,70.41666666666667,1773.9130434782608,60C1817.391304347826,49.58333333333333,1834.782608695652,-193.91666666666666,1878.2608695652173,-156C1921.7391304347825,-118.08333333333334,1939.1304347826085,205.33333333333334,1982.6086956521738,242C2026.086956521739,278.6666666666667,2043.4782608695652,33.33333333333333,2086.9565217391305,20C2130.434782608696,6.666666666666668,2147.826086956522,206.95833333333334,2191.304347826087,178C2234.782608695652,149.04166666666666,2252.1739130434785,-100.66666666666667,2295.6521739130435,-119C2339.1304347826085,-137.33333333333334,2326.177536231884,-18.125,2400,90C2473.822463768116,198.125,3254.1666666666665,231.25,2650,400C2045.8333333333335,568.75,156.25,795.8333333333334,-500,900" transform="matrix(1,0,0,1,0,1200)" opacity="0.47"></path><path d="M-10,10C13.822463768115941,25.625,58.78623188405797,105,104.34782608695652,85C149.90942028985506,65,165.2173913043478,-103.70833333333333,208.69565217391303,-86C252.17391304347825,-68.29166666666667,269.5652173913044,152.91666666666666,313.04347826086956,170C356.52173913043475,187.08333333333334,373.9130434782608,15.375,417.39130434782606,-4C460.8695652173913,-23.375,478.2608695652174,83.875,521.7391304347826,77C565.2173913043479,70.125,582.6086956521739,-39.5,626.0869565217391,-37C669.5652173913044,-34.5,686.9565217391304,105.25,730.4347826086956,89C773.9130434782609,72.75,791.3043478260869,-140.20833333333334,834.7826086956521,-115C878.2608695652174,-89.79166666666666,895.6521739130434,193.33333333333334,939.1304347826086,210C982.6086956521739,226.66666666666666,1000,-5,1043.4782608695652,-35C1086.9565217391305,-65,1104.3478260869565,56.625,1147.8260869565217,66C1191.304347826087,75.375,1208.695652173913,-10.833333333333336,1252.1739130434783,10C1295.6521739130435,30.833333333333336,1313.0434782608695,178.70833333333334,1356.5217391304348,166C1400,153.29166666666666,1417.391304347826,-26.833333333333336,1460.8695652173913,-51C1504.3478260869565,-75.16666666666666,1521.7391304347825,61.45833333333333,1565.2173913043478,50C1608.695652173913,38.54166666666667,1626.086956521739,-108.08333333333333,1669.5652173913043,-106C1713.0434782608695,-103.91666666666667,1730.4347826086955,70.41666666666667,1773.9130434782608,60C1817.391304347826,49.58333333333333,1834.782608695652,-193.91666666666666,1878.2608695652173,-156C1921.7391304347825,-118.08333333333334,1939.1304347826085,205.33333333333334,1982.6086956521738,242C2026.086956521739,278.6666666666667,2043.4782608695652,33.33333333333333,2086.9565217391305,20C2130.434782608696,6.666666666666668,2147.826086956522,206.95833333333334,2191.304347826087,178C2234.782608695652,149.04166666666666,2252.1739130434785,-100.66666666666667,2295.6521739130435,-119C2339.1304347826085,-137.33333333333334,2326.177536231884,-18.125,2400,90C2473.822463768116,198.125,3254.1666666666665,231.25,2650,400C2045.8333333333335,568.75,156.25,795.8333333333334,-500,900" transform="matrix(1,0,0,1,0,1350)" opacity="0.53"></path><path d="M-10,10C13.822463768115941,25.625,58.78623188405797,105,104.34782608695652,85C149.90942028985506,65,165.2173913043478,-103.70833333333333,208.69565217391303,-86C252.17391304347825,-68.29166666666667,269.5652173913044,152.91666666666666,313.04347826086956,170C356.52173913043475,187.08333333333334,373.9130434782608,15.375,417.39130434782606,-4C460.8695652173913,-23.375,478.2608695652174,83.875,521.7391304347826,77C565.2173913043479,70.125,582.6086956521739,-39.5,626.0869565217391,-37C669.5652173913044,-34.5,686.9565217391304,105.25,730.4347826086956,89C773.9130434782609,72.75,791.3043478260869,-140.20833333333334,834.7826086956521,-115C878.2608695652174,-89.79166666666666,895.6521739130434,193.33333333333334,939.1304347826086,210C982.6086956521739,226.66666666666666,1000,-5,1043.4782608695652,-35C1086.9565217391305,-65,1104.3478260869565,56.625,1147.8260869565217,66C1191.304347826087,75.375,1208.695652173913,-10.833333333333336,1252.1739130434783,10C1295.6521739130435,30.833333333333336,1313.0434782608695,178.70833333333334,1356.5217391304348,166C1400,153.29166666666666,1417.391304347826,-26.833333333333336,1460.8695652173913,-51C1504.3478260869565,-75.16666666666666,1521.7391304347825,61.45833333333333,1565.2173913043478,50C1608.695652173913,38.54166666666667,1626.086956521739,-108.08333333333333,1669.5652173913043,-106C1713.0434782608695,-103.91666666666667,1730.4347826086955,70.41666666666667,1773.9130434782608,60C1817.391304347826,49.58333333333333,1834.782608695652,-193.91666666666666,1878.2608695652173,-156C1921.7391304347825,-118.08333333333334,1939.1304347826085,205.33333333333334,1982.6086956521738,242C2026.086956521739,278.6666666666667,2043.4782608695652,33.33333333333333,2086.9565217391305,20C2130.434782608696,6.666666666666668,2147.826086956522,206.95833333333334,2191.304347826087,178C2234.782608695652,149.04166666666666,2252.1739130434785,-100.66666666666667,2295.6521739130435,-119C2339.1304347826085,-137.33333333333334,2326.177536231884,-18.125,2400,90C2473.822463768116,198.125,3254.1666666666665,231.25,2650,400C2045.8333333333335,568.75,156.25,795.8333333333334,-500,900" transform="matrix(1,0,0,1,0,1500)" opacity="0.58"></path><path d="M-10,10C13.822463768115941,25.625,58.78623188405797,105,104.34782608695652,85C149.90942028985506,65,165.2173913043478,-103.70833333333333,208.69565217391303,-86C252.17391304347825,-68.29166666666667,269.5652173913044,152.91666666666666,313.04347826086956,170C356.52173913043475,187.08333333333334,373.9130434782608,15.375,417.39130434782606,-4C460.8695652173913,-23.375,478.2608695652174,83.875,521.7391304347826,77C565.2173913043479,70.125,582.6086956521739,-39.5,626.0869565217391,-37C669.5652173913044,-34.5,686.9565217391304,105.25,730.4347826086956,89C773.9130434782609,72.75,791.3043478260869,-140.20833333333334,834.7826086956521,-115C878.2608695652174,-89.79166666666666,895.6521739130434,193.33333333333334,939.1304347826086,210C982.6086956521739,226.66666666666666,1000,-5,1043.4782608695652,-35C1086.9565217391305,-65,1104.3478260869565,56.625,1147.8260869565217,66C1191.304347826087,75.375,1208.695652173913,-10.833333333333336,1252.1739130434783,10C1295.6521739130435,30.833333333333336,1313.0434782608695,178.70833333333334,1356.5217391304348,166C1400,153.29166666666666,1417.391304347826,-26.833333333333336,1460.8695652173913,-51C1504.3478260869565,-75.16666666666666,1521.7391304347825,61.45833333333333,1565.2173913043478,50C1608.695652173913,38.54166666666667,1626.086956521739,-108.08333333333333,1669.5652173913043,-106C1713.0434782608695,-103.91666666666667,1730.4347826086955,70.41666666666667,1773.9130434782608,60C1817.391304347826,49.58333333333333,1834.782608695652,-193.91666666666666,1878.2608695652173,-156C1921.7391304347825,-118.08333333333334,1939.1304347826085,205.33333333333334,1982.6086956521738,242C2026.086956521739,278.6666666666667,2043.4782608695652,33.33333333333333,2086.9565217391305,20C2130.434782608696,6.666666666666668,2147.826086956522,206.95833333333334,2191.304347826087,178C2234.782608695652,149.04166666666666,2252.1739130434785,-100.66666666666667,2295.6521739130435,-119C2339.1304347826085,-137.33333333333334,2326.177536231884,-18.125,2400,90C2473.822463768116,198.125,3254.1666666666665,231.25,2650,400C2045.8333333333335,568.75,156.25,795.8333333333334,-500,900" transform="matrix(1,0,0,1,0,1650)" opacity="0.64"></path><path d="M-10,10C13.822463768115941,25.625,58.78623188405797,105,104.34782608695652,85C149.90942028985506,65,165.2173913043478,-103.70833333333333,208.69565217391303,-86C252.17391304347825,-68.29166666666667,269.5652173913044,152.91666666666666,313.04347826086956,170C356.52173913043475,187.08333333333334,373.9130434782608,15.375,417.39130434782606,-4C460.8695652173913,-23.375,478.2608695652174,83.875,521.7391304347826,77C565.2173913043479,70.125,582.6086956521739,-39.5,626.0869565217391,-37C669.5652173913044,-34.5,686.9565217391304,105.25,730.4347826086956,89C773.9130434782609,72.75,791.3043478260869,-140.20833333333334,834.7826086956521,-115C878.2608695652174,-89.79166666666666,895.6521739130434,193.33333333333334,939.1304347826086,210C982.6086956521739,226.66666666666666,1000,-5,1043.4782608695652,-35C1086.9565217391305,-65,1104.3478260869565,56.625,1147.8260869565217,66C1191.304347826087,75.375,1208.695652173913,-10.833333333333336,1252.1739130434783,10C1295.6521739130435,30.833333333333336,1313.0434782608695,178.70833333333334,1356.5217391304348,166C1400,153.29166666666666,1417.391304347826,-26.833333333333336,1460.8695652173913,-51C1504.3478260869565,-75.16666666666666,1521.7391304347825,61.45833333333333,1565.2173913043478,50C1608.695652173913,38.54166666666667,1626.086956521739,-108.08333333333333,1669.5652173913043,-106C1713.0434782608695,-103.91666666666667,1730.4347826086955,70.41666666666667,1773.9130434782608,60C1817.391304347826,49.58333333333333,1834.782608695652,-193.91666666666666,1878.2608695652173,-156C1921.7391304347825,-118.08333333333334,1939.1304347826085,205.33333333333334,1982.6086956521738,242C2026.086956521739,278.6666666666667,2043.4782608695652,33.33333333333333,2086.9565217391305,20C2130.434782608696,6.666666666666668,2147.826086956522,206.95833333333334,2191.304347826087,178C2234.782608695652,149.04166666666666,2252.1739130434785,-100.66666666666667,2295.6521739130435,-119C2339.1304347826085,-137.33333333333334,2326.177536231884,-18.125,2400,90C2473.822463768116,198.125,3254.1666666666665,231.25,2650,400C2045.8333333333335,568.75,156.25,795.8333333333334,-500,900" transform="matrix(1,0,0,1,0,1800)" opacity="0.70"></path><path d="M-10,10C13.822463768115941,25.625,58.78623188405797,105,104.34782608695652,85C149.90942028985506,65,165.2173913043478,-103.70833333333333,208.69565217391303,-86C252.17391304347825,-68.29166666666667,269.5652173913044,152.91666666666666,313.04347826086956,170C356.52173913043475,187.08333333333334,373.9130434782608,15.375,417.39130434782606,-4C460.8695652173913,-23.375,478.2608695652174,83.875,521.7391304347826,77C565.2173913043479,70.125,582.6086956521739,-39.5,626.0869565217391,-37C669.5652173913044,-34.5,686.9565217391304,105.25,730.4347826086956,89C773.9130434782609,72.75,791.3043478260869,-140.20833333333334,834.7826086956521,-115C878.2608695652174,-89.79166666666666,895.6521739130434,193.33333333333334,939.1304347826086,210C982.6086956521739,226.66666666666666,1000,-5,1043.4782608695652,-35C1086.9565217391305,-65,1104.3478260869565,56.625,1147.8260869565217,66C1191.304347826087,75.375,1208.695652173913,-10.833333333333336,1252.1739130434783,10C1295.6521739130435,30.833333333333336,1313.0434782608695,178.70833333333334,1356.5217391304348,166C1400,153.29166666666666,1417.391304347826,-26.833333333333336,1460.8695652173913,-51C1504.3478260869565,-75.16666666666666,1521.7391304347825,61.45833333333333,1565.2173913043478,50C1608.695652173913,38.54166666666667,1626.086956521739,-108.08333333333333,1669.5652173913043,-106C1713.0434782608695,-103.91666666666667,1730.4347826086955,70.41666666666667,1773.9130434782608,60C1817.391304347826,49.58333333333333,1834.782608695652,-193.91666666666666,1878.2608695652173,-156C1921.7391304347825,-118.08333333333334,1939.1304347826085,205.33333333333334,1982.6086956521738,242C2026.086956521739,278.6666666666667,2043.4782608695652,33.33333333333333,2086.9565217391305,20C2130.434782608696,6.666666666666668,2147.826086956522,206.95833333333334,2191.304347826087,178C2234.782608695652,149.04166666666666,2252.1739130434785,-100.66666666666667,2295.6521739130435,-119C2339.1304347826085,-137.33333333333334,2326.177536231884,-18.125,2400,90C2473.822463768116,198.125,3254.1666666666665,231.25,2650,400C2045.8333333333335,568.75,156.25,795.8333333333334,-500,900" transform="matrix(1,0,0,1,0,1950)" opacity="0.76"></path><path d="M-10,10C13.822463768115941,25.625,58.78623188405797,105,104.34782608695652,85C149.90942028985506,65,165.2173913043478,-103.70833333333333,208.69565217391303,-86C252.17391304347825,-68.29166666666667,269.5652173913044,152.91666666666666,313.04347826086956,170C356.52173913043475,187.08333333333334,373.9130434782608,15.375,417.39130434782606,-4C460.8695652173913,-23.375,478.2608695652174,83.875,521.7391304347826,77C565.2173913043479,70.125,582.6086956521739,-39.5,626.0869565217391,-37C669.5652173913044,-34.5,686.9565217391304,105.25,730.4347826086956,89C773.9130434782609,72.75,791.3043478260869,-140.20833333333334,834.7826086956521,-115C878.2608695652174,-89.79166666666666,895.6521739130434,193.33333333333334,939.1304347826086,210C982.6086956521739,226.66666666666666,1000,-5,1043.4782608695652,-35C1086.9565217391305,-65,1104.3478260869565,56.625,1147.8260869565217,66C1191.304347826087,75.375,1208.695652173913,-10.833333333333336,1252.1739130434783,10C1295.6521739130435,30.833333333333336,1313.0434782608695,178.70833333333334,1356.5217391304348,166C1400,153.29166666666666,1417.391304347826,-26.833333333333336,1460.8695652173913,-51C1504.3478260869565,-75.16666666666666,1521.7391304347825,61.45833333333333,1565.2173913043478,50C1608.695652173913,38.54166666666667,1626.086956521739,-108.08333333333333,1669.5652173913043,-106C1713.0434782608695,-103.91666666666667,1730.4347826086955,70.41666666666667,1773.9130434782608,60C1817.391304347826,49.58333333333333,1834.782608695652,-193.91666666666666,1878.2608695652173,-156C1921.7391304347825,-118.08333333333334,1939.1304347826085,205.33333333333334,1982.6086956521738,242C2026.086956521739,278.6666666666667,2043.4782608695652,33.33333333333333,2086.9565217391305,20C2130.434782608696,6.666666666666668,2147.826086956522,206.95833333333334,2191.304347826087,178C2234.782608695652,149.04166666666666,2252.1739130434785,-100.66666666666667,2295.6521739130435,-119C2339.1304347826085,-137.33333333333334,2326.177536231884,-18.125,2400,90C2473.822463768116,198.125,3254.1666666666665,231.25,2650,400C2045.8333333333335,568.75,156.25,795.8333333333334,-500,900" transform="matrix(1,0,0,1,0,2100)" opacity="0.82"></path><path d="M-10,10C13.822463768115941,25.625,58.78623188405797,105,104.34782608695652,85C149.90942028985506,65,165.2173913043478,-103.70833333333333,208.69565217391303,-86C252.17391304347825,-68.29166666666667,269.5652173913044,152.91666666666666,313.04347826086956,170C356.52173913043475,187.08333333333334,373.9130434782608,15.375,417.39130434782606,-4C460.8695652173913,-23.375,478.2608695652174,83.875,521.7391304347826,77C565.2173913043479,70.125,582.6086956521739,-39.5,626.0869565217391,-37C669.5652173913044,-34.5,686.9565217391304,105.25,730.4347826086956,89C773.9130434782609,72.75,791.3043478260869,-140.20833333333334,834.7826086956521,-115C878.2608695652174,-89.79166666666666,895.6521739130434,193.33333333333334,939.1304347826086,210C982.6086956521739,226.66666666666666,1000,-5,1043.4782608695652,-35C1086.9565217391305,-65,1104.3478260869565,56.625,1147.8260869565217,66C1191.304347826087,75.375,1208.695652173913,-10.833333333333336,1252.1739130434783,10C1295.6521739130435,30.833333333333336,1313.0434782608695,178.70833333333334,1356.5217391304348,166C1400,153.29166666666666,1417.391304347826,-26.833333333333336,1460.8695652173913,-51C1504.3478260869565,-75.16666666666666,1521.7391304347825,61.45833333333333,1565.2173913043478,50C1608.695652173913,38.54166666666667,1626.086956521739,-108.08333333333333,1669.5652173913043,-106C1713.0434782608695,-103.91666666666667,1730.4347826086955,70.41666666666667,1773.9130434782608,60C1817.391304347826,49.58333333333333,1834.782608695652,-193.91666666666666,1878.2608695652173,-156C1921.7391304347825,-118.08333333333334,1939.1304347826085,205.33333333333334,1982.6086956521738,242C2026.086956521739,278.6666666666667,2043.4782608695652,33.33333333333333,2086.9565217391305,20C2130.434782608696,6.666666666666668,2147.826086956522,206.95833333333334,2191.304347826087,178C2234.782608695652,149.04166666666666,2252.1739130434785,-100.66666666666667,2295.6521739130435,-119C2339.1304347826085,-137.33333333333334,2326.177536231884,-18.125,2400,90C2473.822463768116,198.125,3254.1666666666665,231.25,2650,400C2045.8333333333335,568.75,156.25,795.8333333333334,-500,900" transform="matrix(1,0,0,1,0,2250)" opacity="0.88"></path><path d="M-10,10C13.822463768115941,25.625,58.78623188405797,105,104.34782608695652,85C149.90942028985506,65,165.2173913043478,-103.70833333333333,208.69565217391303,-86C252.17391304347825,-68.29166666666667,269.5652173913044,152.91666666666666,313.04347826086956,170C356.52173913043475,187.08333333333334,373.9130434782608,15.375,417.39130434782606,-4C460.8695652173913,-23.375,478.2608695652174,83.875,521.7391304347826,77C565.2173913043479,70.125,582.6086956521739,-39.5,626.0869565217391,-37C669.5652173913044,-34.5,686.9565217391304,105.25,730.4347826086956,89C773.9130434782609,72.75,791.3043478260869,-140.20833333333334,834.7826086956521,-115C878.2608695652174,-89.79166666666666,895.6521739130434,193.33333333333334,939.1304347826086,210C982.6086956521739,226.66666666666666,1000,-5,1043.4782608695652,-35C1086.9565217391305,-65,1104.3478260869565,56.625,1147.8260869565217,66C1191.304347826087,75.375,1208.695652173913,-10.833333333333336,1252.1739130434783,10C1295.6521739130435,30.833333333333336,1313.0434782608695,178.70833333333334,1356.5217391304348,166C1400,153.29166666666666,1417.391304347826,-26.833333333333336,1460.8695652173913,-51C1504.3478260869565,-75.16666666666666,1521.7391304347825,61.45833333333333,1565.2173913043478,50C1608.695652173913,38.54166666666667,1626.086956521739,-108.08333333333333,1669.5652173913043,-106C1713.0434782608695,-103.91666666666667,1730.4347826086955,70.41666666666667,1773.9130434782608,60C1817.391304347826,49.58333333333333,1834.782608695652,-193.91666666666666,1878.2608695652173,-156C1921.7391304347825,-118.08333333333334,1939.1304347826085,205.33333333333334,1982.6086956521738,242C2026.086956521739,278.6666666666667,2043.4782608695652,33.33333333333333,2086.9565217391305,20C2130.434782608696,6.666666666666668,2147.826086956522,206.95833333333334,2191.304347826087,178C2234.782608695652,149.04166666666666,2252.1739130434785,-100.66666666666667,2295.6521739130435,-119C2339.1304347826085,-137.33333333333334,2326.177536231884,-18.125,2400,90C2473.822463768116,198.125,3254.1666666666665,231.25,2650,400C2045.8333333333335,568.75,156.25,795.8333333333334,-500,900" transform="matrix(1,0,0,1,0,2400)" opacity="0.94"></path><path d="M-10,10C13.822463768115941,25.625,58.78623188405797,105,104.34782608695652,85C149.90942028985506,65,165.2173913043478,-103.70833333333333,208.69565217391303,-86C252.17391304347825,-68.29166666666667,269.5652173913044,152.91666666666666,313.04347826086956,170C356.52173913043475,187.08333333333334,373.9130434782608,15.375,417.39130434782606,-4C460.8695652173913,-23.375,478.2608695652174,83.875,521.7391304347826,77C565.2173913043479,70.125,582.6086956521739,-39.5,626.0869565217391,-37C669.5652173913044,-34.5,686.9565217391304,105.25,730.4347826086956,89C773.9130434782609,72.75,791.3043478260869,-140.20833333333334,834.7826086956521,-115C878.2608695652174,-89.79166666666666,895.6521739130434,193.33333333333334,939.1304347826086,210C982.6086956521739,226.66666666666666,1000,-5,1043.4782608695652,-35C1086.9565217391305,-65,1104.3478260869565,56.625,1147.8260869565217,66C1191.304347826087,75.375,1208.695652173913,-10.833333333333336,1252.1739130434783,10C1295.6521739130435,30.833333333333336,1313.0434782608695,178.70833333333334,1356.5217391304348,166C1400,153.29166666666666,1417.391304347826,-26.833333333333336,1460.8695652173913,-51C1504.3478260869565,-75.16666666666666,1521.7391304347825,61.45833333333333,1565.2173913043478,50C1608.695652173913,38.54166666666667,1626.086956521739,-108.08333333333333,1669.5652173913043,-106C1713.0434782608695,-103.91666666666667,1730.4347826086955,70.41666666666667,1773.9130434782608,60C1817.391304347826,49.58333333333333,1834.782608695652,-193.91666666666666,1878.2608695652173,-156C1921.7391304347825,-118.08333333333334,1939.1304347826085,205.33333333333334,1982.6086956521738,242C2026.086956521739,278.6666666666667,2043.4782608695652,33.33333333333333,2086.9565217391305,20C2130.434782608696,6.666666666666668,2147.826086956522,206.95833333333334,2191.304347826087,178C2234.782608695652,149.04166666666666,2252.1739130434785,-100.66666666666667,2295.6521739130435,-119C2339.1304347826085,-137.33333333333334,2326.177536231884,-18.125,2400,90C2473.822463768116,198.125,3254.1666666666665,231.25,2650,400C2045.8333333333335,568.75,156.25,795.8333333333334,-500,900" transform="matrix(1,0,0,1,0,2550)" opacity="1.00"></path></g></svg>