<svg xmlns="http://www.w3.org/2000/svg" version="1.1" xmlns:xlink="http://www.w3.org/1999/xlink" xmlns:svgjs="http://svgjs.dev/svgjs" viewBox="0 0 2400 800"><defs><linearGradient x1="50%" y1="0%" x2="50%" y2="100%" id="sssurf-grad"><stop stop-color="hsla(198, 100%, 8%, 1)" stop-opacity="1" offset="0%"></stop><stop stop-color="hsla(270, 0%, 0%, 1)" stop-opacity="1" offset="100%"></stop></linearGradient></defs><g fill="url(#sssurf-grad)" transform="matrix(1,0,0,1,9.9305419921875,-178.44564819335938)"><path d="M-10,10C27.797619047619044,16.875,97.91666666666666,71.125,171.42857142857142,43C244.94047619047618,14.875,271.42857142857144,-136.25,342.85714285714283,-125C414.2857142857142,-113.75,442.8571428571428,100.75,514.2857142857142,97C585.7142857142857,93.25,614.2857142857142,-137.375,685.7142857142857,-143C757.1428571428571,-148.625,785.7142857142857,65.83333333333333,857.1428571428571,70C928.5714285714286,74.16666666666667,957.142857142857,-114.45833333333333,1028.5714285714284,-123C1099.9999999999998,-131.54166666666666,1128.5714285714287,2.5416666666666643,1200,29C1271.4285714285713,55.458333333333336,1300,-22.25,1371.4285714285713,4C1442.8571428571427,30.25,1471.4285714285713,155.41666666666666,1542.8571428571427,155C1614.285714285714,154.58333333333334,1642.857142857143,22,1714.2857142857142,2C1785.7142857142856,-18,1814.2857142857142,80.45833333333334,1885.7142857142856,59C1957.1428571428569,37.541666666666664,1985.7142857142856,-124.75,2057.142857142857,-101C2128.5714285714284,-77.25,2157.142857142857,176.54166666666666,2228.5714285714284,173C2300,169.45833333333334,2312.2023809523807,-165.29166666666669,2400,-118C2487.7976190476193,-70.70833333333333,3254.1666666666665,187.91666666666669,2650,400C2045.8333333333335,612.0833333333333,156.25,795.8333333333334,-500,900" transform="matrix(1,0,0,1,0,150)" opacity="0.05"></path><path d="M-10,10C27.797619047619044,16.875,97.91666666666666,71.125,171.42857142857142,43C244.94047619047618,14.875,271.42857142857144,-136.25,342.85714285714283,-125C414.2857142857142,-113.75,442.8571428571428,100.75,514.2857142857142,97C585.7142857142857,93.25,614.2857142857142,-137.375,685.7142857142857,-143C757.1428571428571,-148.625,785.7142857142857,65.83333333333333,857.1428571428571,70C928.5714285714286,74.16666666666667,957.142857142857,-114.45833333333333,1028.5714285714284,-123C1099.9999999999998,-131.54166666666666,1128.5714285714287,2.5416666666666643,1200,29C1271.4285714285713,55.458333333333336,1300,-22.25,1371.4285714285713,4C1442.8571428571427,30.25,1471.4285714285713,155.41666666666666,1542.8571428571427,155C1614.285714285714,154.58333333333334,1642.857142857143,22,1714.2857142857142,2C1785.7142857142856,-18,1814.2857142857142,80.45833333333334,1885.7142857142856,59C1957.1428571428569,37.541666666666664,1985.7142857142856,-124.75,2057.142857142857,-101C2128.5714285714284,-77.25,2157.142857142857,176.54166666666666,2228.5714285714284,173C2300,169.45833333333334,2312.2023809523807,-165.29166666666669,2400,-118C2487.7976190476193,-70.70833333333333,3254.1666666666665,187.91666666666669,2650,400C2045.8333333333335,612.0833333333333,156.25,795.8333333333334,-500,900" transform="matrix(1,0,0,1,0,300)" opacity="0.21"></path><path d="M-10,10C27.797619047619044,16.875,97.91666666666666,71.125,171.42857142857142,43C244.94047619047618,14.875,271.42857142857144,-136.25,342.85714285714283,-125C414.2857142857142,-113.75,442.8571428571428,100.75,514.2857142857142,97C585.7142857142857,93.25,614.2857142857142,-137.375,685.7142857142857,-143C757.1428571428571,-148.625,785.7142857142857,65.83333333333333,857.1428571428571,70C928.5714285714286,74.16666666666667,957.142857142857,-114.45833333333333,1028.5714285714284,-123C1099.9999999999998,-131.54166666666666,1128.5714285714287,2.5416666666666643,1200,29C1271.4285714285713,55.458333333333336,1300,-22.25,1371.4285714285713,4C1442.8571428571427,30.25,1471.4285714285713,155.41666666666666,1542.8571428571427,155C1614.285714285714,154.58333333333334,1642.857142857143,22,1714.2857142857142,2C1785.7142857142856,-18,1814.2857142857142,80.45833333333334,1885.7142857142856,59C1957.1428571428569,37.541666666666664,1985.7142857142856,-124.75,2057.142857142857,-101C2128.5714285714284,-77.25,2157.142857142857,176.54166666666666,2228.5714285714284,173C2300,169.45833333333334,2312.2023809523807,-165.29166666666669,2400,-118C2487.7976190476193,-70.70833333333333,3254.1666666666665,187.91666666666669,2650,400C2045.8333333333335,612.0833333333333,156.25,795.8333333333334,-500,900" transform="matrix(1,0,0,1,0,450)" opacity="0.37"></path><path d="M-10,10C27.797619047619044,16.875,97.91666666666666,71.125,171.42857142857142,43C244.94047619047618,14.875,271.42857142857144,-136.25,342.85714285714283,-125C414.2857142857142,-113.75,442.8571428571428,100.75,514.2857142857142,97C585.7142857142857,93.25,614.2857142857142,-137.375,685.7142857142857,-143C757.1428571428571,-148.625,785.7142857142857,65.83333333333333,857.1428571428571,70C928.5714285714286,74.16666666666667,957.142857142857,-114.45833333333333,1028.5714285714284,-123C1099.9999999999998,-131.54166666666666,1128.5714285714287,2.5416666666666643,1200,29C1271.4285714285713,55.458333333333336,1300,-22.25,1371.4285714285713,4C1442.8571428571427,30.25,1471.4285714285713,155.41666666666666,1542.8571428571427,155C1614.285714285714,154.58333333333334,1642.857142857143,22,1714.2857142857142,2C1785.7142857142856,-18,1814.2857142857142,80.45833333333334,1885.7142857142856,59C1957.1428571428569,37.541666666666664,1985.7142857142856,-124.75,2057.142857142857,-101C2128.5714285714284,-77.25,2157.142857142857,176.54166666666666,2228.5714285714284,173C2300,169.45833333333334,2312.2023809523807,-165.29166666666669,2400,-118C2487.7976190476193,-70.70833333333333,3254.1666666666665,187.91666666666669,2650,400C2045.8333333333335,612.0833333333333,156.25,795.8333333333334,-500,900" transform="matrix(1,0,0,1,0,600)" opacity="0.53"></path><path d="M-10,10C27.797619047619044,16.875,97.91666666666666,71.125,171.42857142857142,43C244.94047619047618,14.875,271.42857142857144,-136.25,342.85714285714283,-125C414.2857142857142,-113.75,442.8571428571428,100.75,514.2857142857142,97C585.7142857142857,93.25,614.2857142857142,-137.375,685.7142857142857,-143C757.1428571428571,-148.625,785.7142857142857,65.83333333333333,857.1428571428571,70C928.5714285714286,74.16666666666667,957.142857142857,-114.45833333333333,1028.5714285714284,-123C1099.9999999999998,-131.54166666666666,1128.5714285714287,2.5416666666666643,1200,29C1271.4285714285713,55.458333333333336,1300,-22.25,1371.4285714285713,4C1442.8571428571427,30.25,1471.4285714285713,155.41666666666666,1542.8571428571427,155C1614.285714285714,154.58333333333334,1642.857142857143,22,1714.2857142857142,2C1785.7142857142856,-18,1814.2857142857142,80.45833333333334,1885.7142857142856,59C1957.1428571428569,37.541666666666664,1985.7142857142856,-124.75,2057.142857142857,-101C2128.5714285714284,-77.25,2157.142857142857,176.54166666666666,2228.5714285714284,173C2300,169.45833333333334,2312.2023809523807,-165.29166666666669,2400,-118C2487.7976190476193,-70.70833333333333,3254.1666666666665,187.91666666666669,2650,400C2045.8333333333335,612.0833333333333,156.25,795.8333333333334,-500,900" transform="matrix(1,0,0,1,0,750)" opacity="0.68"></path><path d="M-10,10C27.797619047619044,16.875,97.91666666666666,71.125,171.42857142857142,43C244.94047619047618,14.875,271.42857142857144,-136.25,342.85714285714283,-125C414.2857142857142,-113.75,442.8571428571428,100.75,514.2857142857142,97C585.7142857142857,93.25,614.2857142857142,-137.375,685.7142857142857,-143C757.1428571428571,-148.625,785.7142857142857,65.83333333333333,857.1428571428571,70C928.5714285714286,74.16666666666667,957.142857142857,-114.45833333333333,1028.5714285714284,-123C1099.9999999999998,-131.54166666666666,1128.5714285714287,2.5416666666666643,1200,29C1271.4285714285713,55.458333333333336,1300,-22.25,1371.4285714285713,4C1442.8571428571427,30.25,1471.4285714285713,155.41666666666666,1542.8571428571427,155C1614.285714285714,154.58333333333334,1642.857142857143,22,1714.2857142857142,2C1785.7142857142856,-18,1814.2857142857142,80.45833333333334,1885.7142857142856,59C1957.1428571428569,37.541666666666664,1985.7142857142856,-124.75,2057.142857142857,-101C2128.5714285714284,-77.25,2157.142857142857,176.54166666666666,2228.5714285714284,173C2300,169.45833333333334,2312.2023809523807,-165.29166666666669,2400,-118C2487.7976190476193,-70.70833333333333,3254.1666666666665,187.91666666666669,2650,400C2045.8333333333335,612.0833333333333,156.25,795.8333333333334,-500,900" transform="matrix(1,0,0,1,0,900)" opacity="0.84"></path><path d="M-10,10C27.797619047619044,16.875,97.91666666666666,71.125,171.42857142857142,43C244.94047619047618,14.875,271.42857142857144,-136.25,342.85714285714283,-125C414.2857142857142,-113.75,442.8571428571428,100.75,514.2857142857142,97C585.7142857142857,93.25,614.2857142857142,-137.375,685.7142857142857,-143C757.1428571428571,-148.625,785.7142857142857,65.83333333333333,857.1428571428571,70C928.5714285714286,74.16666666666667,957.142857142857,-114.45833333333333,1028.5714285714284,-123C1099.9999999999998,-131.54166666666666,1128.5714285714287,2.5416666666666643,1200,29C1271.4285714285713,55.458333333333336,1300,-22.25,1371.4285714285713,4C1442.8571428571427,30.25,1471.4285714285713,155.41666666666666,1542.8571428571427,155C1614.285714285714,154.58333333333334,1642.857142857143,22,1714.2857142857142,2C1785.7142857142856,-18,1814.2857142857142,80.45833333333334,1885.7142857142856,59C1957.1428571428569,37.541666666666664,1985.7142857142856,-124.75,2057.142857142857,-101C2128.5714285714284,-77.25,2157.142857142857,176.54166666666666,2228.5714285714284,173C2300,169.45833333333334,2312.2023809523807,-165.29166666666669,2400,-118C2487.7976190476193,-70.70833333333333,3254.1666666666665,187.91666666666669,2650,400C2045.8333333333335,612.0833333333333,156.25,795.8333333333334,-500,900" transform="matrix(1,0,0,1,0,1050)" opacity="1"></path></g></svg>