<svg xmlns="http://www.w3.org/2000/svg" version="1.1" xmlns:xlink="http://www.w3.org/1999/xlink" xmlns:svgjs="http://svgjs.dev/svgjs" viewBox="0 0 2400 800" opacity="1"><defs><linearGradient x1="50%" y1="0%" x2="50%" y2="100%" id="sssurf-grad"><stop stop-color="hsla(162, 0%, 0%, 1)" stop-opacity="1" offset="0%"></stop><stop stop-color="hsla(270, 0%, 65%, 1)" stop-opacity="1" offset="100%"></stop></linearGradient></defs><g fill="url(#sssurf-grad)" transform="matrix(1,0,0,1,11.510009765625,-236.9781494140625)"><path d="M-10,10C8.75,14.166666666666668,44.583333333333336,37.5,80,30C115.41666666666666,22.5,126.66666666666666,-24.333333333333332,160,-26C193.33333333333334,-27.666666666666668,206.66666666666666,18.875,240,22C273.3333333333333,25.125,286.6666666666667,-13.5,320,-11C353.3333333333333,-8.5,366.6666666666667,36.708333333333336,400,34C433.3333333333333,31.291666666666668,446.6666666666667,-27.958333333333332,480,-24C513.3333333333334,-20.041666666666668,526.6666666666666,48.833333333333336,560,53C593.3333333333334,57.166666666666664,606.6666666666666,-5.25,640,-4C673.3333333333334,-2.75,686.6666666666666,62.75,720,59C753.3333333333334,55.25,766.6666666666666,-16.791666666666664,800,-22C833.3333333333334,-27.208333333333336,846.6666666666666,31.291666666666668,880,34C913.3333333333334,36.708333333333336,926.6666666666666,-15.666666666666666,960,-9C993.3333333333334,-2.333333333333334,1006.6666666666666,67.25,1040,66C1073.3333333333333,64.75,1086.6666666666667,-15.625,1120,-15C1153.3333333333333,-14.375,1166.6666666666667,65.875,1200,69C1233.3333333333333,72.125,1246.6666666666667,4.583333333333333,1280,0C1313.3333333333333,-4.583333333333333,1326.6666666666667,43.458333333333336,1360,47C1393.3333333333333,50.541666666666664,1406.6666666666667,10.125,1440,17C1473.3333333333333,23.875,1486.6666666666667,79.79166666666667,1520,80C1553.3333333333333,80.20833333333333,1566.6666666666667,16.333333333333332,1600,18C1633.3333333333333,19.666666666666668,1646.6666666666667,84.66666666666667,1680,88C1713.3333333333333,91.33333333333333,1726.6666666666667,40.25,1760,34C1793.3333333333333,27.75,1806.6666666666667,59.875,1840,58C1873.3333333333333,56.125,1886.6666666666667,24.166666666666668,1920,25C1953.3333333333333,25.833333333333332,1966.6666666666667,65.33333333333333,2000,62C2033.3333333333333,58.666666666666664,2046.6666666666667,4.833333333333333,2080,9C2113.3333333333335,13.166666666666668,2126.6666666666665,79.5,2160,82C2193.3333333333335,84.5,2206.6666666666665,16.833333333333332,2240,21C2273.3333333333335,25.166666666666668,2286.6666666666665,100.125,2320,102C2353.3333333333335,103.875,2331.25,-32.08333333333333,2400,30C2468.75,92.08333333333333,3254.1666666666665,218.75,2650,400C2045.8333333333335,581.25,156.25,795.8333333333334,-500,900" transform="matrix(1,0,0,1,0,100)" opacity="0.05"></path><path d="M-10,10C8.75,14.166666666666668,44.583333333333336,37.5,80,30C115.41666666666666,22.5,126.66666666666666,-24.333333333333332,160,-26C193.33333333333334,-27.666666666666668,206.66666666666666,18.875,240,22C273.3333333333333,25.125,286.6666666666667,-13.5,320,-11C353.3333333333333,-8.5,366.6666666666667,36.708333333333336,400,34C433.3333333333333,31.291666666666668,446.6666666666667,-27.958333333333332,480,-24C513.3333333333334,-20.041666666666668,526.6666666666666,48.833333333333336,560,53C593.3333333333334,57.166666666666664,606.6666666666666,-5.25,640,-4C673.3333333333334,-2.75,686.6666666666666,62.75,720,59C753.3333333333334,55.25,766.6666666666666,-16.791666666666664,800,-22C833.3333333333334,-27.208333333333336,846.6666666666666,31.291666666666668,880,34C913.3333333333334,36.708333333333336,926.6666666666666,-15.666666666666666,960,-9C993.3333333333334,-2.333333333333334,1006.6666666666666,67.25,1040,66C1073.3333333333333,64.75,1086.6666666666667,-15.625,1120,-15C1153.3333333333333,-14.375,1166.6666666666667,65.875,1200,69C1233.3333333333333,72.125,1246.6666666666667,4.583333333333333,1280,0C1313.3333333333333,-4.583333333333333,1326.6666666666667,43.458333333333336,1360,47C1393.3333333333333,50.541666666666664,1406.6666666666667,10.125,1440,17C1473.3333333333333,23.875,1486.6666666666667,79.79166666666667,1520,80C1553.3333333333333,80.20833333333333,1566.6666666666667,16.333333333333332,1600,18C1633.3333333333333,19.666666666666668,1646.6666666666667,84.66666666666667,1680,88C1713.3333333333333,91.33333333333333,1726.6666666666667,40.25,1760,34C1793.3333333333333,27.75,1806.6666666666667,59.875,1840,58C1873.3333333333333,56.125,1886.6666666666667,24.166666666666668,1920,25C1953.3333333333333,25.833333333333332,1966.6666666666667,65.33333333333333,2000,62C2033.3333333333333,58.666666666666664,2046.6666666666667,4.833333333333333,2080,9C2113.3333333333335,13.166666666666668,2126.6666666666665,79.5,2160,82C2193.3333333333335,84.5,2206.6666666666665,16.833333333333332,2240,21C2273.3333333333335,25.166666666666668,2286.6666666666665,100.125,2320,102C2353.3333333333335,103.875,2331.25,-32.08333333333333,2400,30C2468.75,92.08333333333333,3254.1666666666665,218.75,2650,400C2045.8333333333335,581.25,156.25,795.8333333333334,-500,900" transform="matrix(1,0,0,1,0,200)" opacity="0.15"></path><path d="M-10,10C8.75,14.166666666666668,44.583333333333336,37.5,80,30C115.41666666666666,22.5,126.66666666666666,-24.333333333333332,160,-26C193.33333333333334,-27.666666666666668,206.66666666666666,18.875,240,22C273.3333333333333,25.125,286.6666666666667,-13.5,320,-11C353.3333333333333,-8.5,366.6666666666667,36.708333333333336,400,34C433.3333333333333,31.291666666666668,446.6666666666667,-27.958333333333332,480,-24C513.3333333333334,-20.041666666666668,526.6666666666666,48.833333333333336,560,53C593.3333333333334,57.166666666666664,606.6666666666666,-5.25,640,-4C673.3333333333334,-2.75,686.6666666666666,62.75,720,59C753.3333333333334,55.25,766.6666666666666,-16.791666666666664,800,-22C833.3333333333334,-27.208333333333336,846.6666666666666,31.291666666666668,880,34C913.3333333333334,36.708333333333336,926.6666666666666,-15.666666666666666,960,-9C993.3333333333334,-2.333333333333334,1006.6666666666666,67.25,1040,66C1073.3333333333333,64.75,1086.6666666666667,-15.625,1120,-15C1153.3333333333333,-14.375,1166.6666666666667,65.875,1200,69C1233.3333333333333,72.125,1246.6666666666667,4.583333333333333,1280,0C1313.3333333333333,-4.583333333333333,1326.6666666666667,43.458333333333336,1360,47C1393.3333333333333,50.541666666666664,1406.6666666666667,10.125,1440,17C1473.3333333333333,23.875,1486.6666666666667,79.79166666666667,1520,80C1553.3333333333333,80.20833333333333,1566.6666666666667,16.333333333333332,1600,18C1633.3333333333333,19.666666666666668,1646.6666666666667,84.66666666666667,1680,88C1713.3333333333333,91.33333333333333,1726.6666666666667,40.25,1760,34C1793.3333333333333,27.75,1806.6666666666667,59.875,1840,58C1873.3333333333333,56.125,1886.6666666666667,24.166666666666668,1920,25C1953.3333333333333,25.833333333333332,1966.6666666666667,65.33333333333333,2000,62C2033.3333333333333,58.666666666666664,2046.6666666666667,4.833333333333333,2080,9C2113.3333333333335,13.166666666666668,2126.6666666666665,79.5,2160,82C2193.3333333333335,84.5,2206.6666666666665,16.833333333333332,2240,21C2273.3333333333335,25.166666666666668,2286.6666666666665,100.125,2320,102C2353.3333333333335,103.875,2331.25,-32.08333333333333,2400,30C2468.75,92.08333333333333,3254.1666666666665,218.75,2650,400C2045.8333333333335,581.25,156.25,795.8333333333334,-500,900" transform="matrix(1,0,0,1,0,300)" opacity="0.24"></path><path d="M-10,10C8.75,14.166666666666668,44.583333333333336,37.5,80,30C115.41666666666666,22.5,126.66666666666666,-24.333333333333332,160,-26C193.33333333333334,-27.666666666666668,206.66666666666666,18.875,240,22C273.3333333333333,25.125,286.6666666666667,-13.5,320,-11C353.3333333333333,-8.5,366.6666666666667,36.708333333333336,400,34C433.3333333333333,31.291666666666668,446.6666666666667,-27.958333333333332,480,-24C513.3333333333334,-20.041666666666668,526.6666666666666,48.833333333333336,560,53C593.3333333333334,57.166666666666664,606.6666666666666,-5.25,640,-4C673.3333333333334,-2.75,686.6666666666666,62.75,720,59C753.3333333333334,55.25,766.6666666666666,-16.791666666666664,800,-22C833.3333333333334,-27.208333333333336,846.6666666666666,31.291666666666668,880,34C913.3333333333334,36.708333333333336,926.6666666666666,-15.666666666666666,960,-9C993.3333333333334,-2.333333333333334,1006.6666666666666,67.25,1040,66C1073.3333333333333,64.75,1086.6666666666667,-15.625,1120,-15C1153.3333333333333,-14.375,1166.6666666666667,65.875,1200,69C1233.3333333333333,72.125,1246.6666666666667,4.583333333333333,1280,0C1313.3333333333333,-4.583333333333333,1326.6666666666667,43.458333333333336,1360,47C1393.3333333333333,50.541666666666664,1406.6666666666667,10.125,1440,17C1473.3333333333333,23.875,1486.6666666666667,79.79166666666667,1520,80C1553.3333333333333,80.20833333333333,1566.6666666666667,16.333333333333332,1600,18C1633.3333333333333,19.666666666666668,1646.6666666666667,84.66666666666667,1680,88C1713.3333333333333,91.33333333333333,1726.6666666666667,40.25,1760,34C1793.3333333333333,27.75,1806.6666666666667,59.875,1840,58C1873.3333333333333,56.125,1886.6666666666667,24.166666666666668,1920,25C1953.3333333333333,25.833333333333332,1966.6666666666667,65.33333333333333,2000,62C2033.3333333333333,58.666666666666664,2046.6666666666667,4.833333333333333,2080,9C2113.3333333333335,13.166666666666668,2126.6666666666665,79.5,2160,82C2193.3333333333335,84.5,2206.6666666666665,16.833333333333332,2240,21C2273.3333333333335,25.166666666666668,2286.6666666666665,100.125,2320,102C2353.3333333333335,103.875,2331.25,-32.08333333333333,2400,30C2468.75,92.08333333333333,3254.1666666666665,218.75,2650,400C2045.8333333333335,581.25,156.25,795.8333333333334,-500,900" transform="matrix(1,0,0,1,0,400)" opacity="0.34"></path><path d="M-10,10C8.75,14.166666666666668,44.583333333333336,37.5,80,30C115.41666666666666,22.5,126.66666666666666,-24.333333333333332,160,-26C193.33333333333334,-27.666666666666668,206.66666666666666,18.875,240,22C273.3333333333333,25.125,286.6666666666667,-13.5,320,-11C353.3333333333333,-8.5,366.6666666666667,36.708333333333336,400,34C433.3333333333333,31.291666666666668,446.6666666666667,-27.958333333333332,480,-24C513.3333333333334,-20.041666666666668,526.6666666666666,48.833333333333336,560,53C593.3333333333334,57.166666666666664,606.6666666666666,-5.25,640,-4C673.3333333333334,-2.75,686.6666666666666,62.75,720,59C753.3333333333334,55.25,766.6666666666666,-16.791666666666664,800,-22C833.3333333333334,-27.208333333333336,846.6666666666666,31.291666666666668,880,34C913.3333333333334,36.708333333333336,926.6666666666666,-15.666666666666666,960,-9C993.3333333333334,-2.333333333333334,1006.6666666666666,67.25,1040,66C1073.3333333333333,64.75,1086.6666666666667,-15.625,1120,-15C1153.3333333333333,-14.375,1166.6666666666667,65.875,1200,69C1233.3333333333333,72.125,1246.6666666666667,4.583333333333333,1280,0C1313.3333333333333,-4.583333333333333,1326.6666666666667,43.458333333333336,1360,47C1393.3333333333333,50.541666666666664,1406.6666666666667,10.125,1440,17C1473.3333333333333,23.875,1486.6666666666667,79.79166666666667,1520,80C1553.3333333333333,80.20833333333333,1566.6666666666667,16.333333333333332,1600,18C1633.3333333333333,19.666666666666668,1646.6666666666667,84.66666666666667,1680,88C1713.3333333333333,91.33333333333333,1726.6666666666667,40.25,1760,34C1793.3333333333333,27.75,1806.6666666666667,59.875,1840,58C1873.3333333333333,56.125,1886.6666666666667,24.166666666666668,1920,25C1953.3333333333333,25.833333333333332,1966.6666666666667,65.33333333333333,2000,62C2033.3333333333333,58.666666666666664,2046.6666666666667,4.833333333333333,2080,9C2113.3333333333335,13.166666666666668,2126.6666666666665,79.5,2160,82C2193.3333333333335,84.5,2206.6666666666665,16.833333333333332,2240,21C2273.3333333333335,25.166666666666668,2286.6666666666665,100.125,2320,102C2353.3333333333335,103.875,2331.25,-32.08333333333333,2400,30C2468.75,92.08333333333333,3254.1666666666665,218.75,2650,400C2045.8333333333335,581.25,156.25,795.8333333333334,-500,900" transform="matrix(1,0,0,1,0,500)" opacity="0.43"></path><path d="M-10,10C8.75,14.166666666666668,44.583333333333336,37.5,80,30C115.41666666666666,22.5,126.66666666666666,-24.333333333333332,160,-26C193.33333333333334,-27.666666666666668,206.66666666666666,18.875,240,22C273.3333333333333,25.125,286.6666666666667,-13.5,320,-11C353.3333333333333,-8.5,366.6666666666667,36.708333333333336,400,34C433.3333333333333,31.291666666666668,446.6666666666667,-27.958333333333332,480,-24C513.3333333333334,-20.041666666666668,526.6666666666666,48.833333333333336,560,53C593.3333333333334,57.166666666666664,606.6666666666666,-5.25,640,-4C673.3333333333334,-2.75,686.6666666666666,62.75,720,59C753.3333333333334,55.25,766.6666666666666,-16.791666666666664,800,-22C833.3333333333334,-27.208333333333336,846.6666666666666,31.291666666666668,880,34C913.3333333333334,36.708333333333336,926.6666666666666,-15.666666666666666,960,-9C993.3333333333334,-2.333333333333334,1006.6666666666666,67.25,1040,66C1073.3333333333333,64.75,1086.6666666666667,-15.625,1120,-15C1153.3333333333333,-14.375,1166.6666666666667,65.875,1200,69C1233.3333333333333,72.125,1246.6666666666667,4.583333333333333,1280,0C1313.3333333333333,-4.583333333333333,1326.6666666666667,43.458333333333336,1360,47C1393.3333333333333,50.541666666666664,1406.6666666666667,10.125,1440,17C1473.3333333333333,23.875,1486.6666666666667,79.79166666666667,1520,80C1553.3333333333333,80.20833333333333,1566.6666666666667,16.333333333333332,1600,18C1633.3333333333333,19.666666666666668,1646.6666666666667,84.66666666666667,1680,88C1713.3333333333333,91.33333333333333,1726.6666666666667,40.25,1760,34C1793.3333333333333,27.75,1806.6666666666667,59.875,1840,58C1873.3333333333333,56.125,1886.6666666666667,24.166666666666668,1920,25C1953.3333333333333,25.833333333333332,1966.6666666666667,65.33333333333333,2000,62C2033.3333333333333,58.666666666666664,2046.6666666666667,4.833333333333333,2080,9C2113.3333333333335,13.166666666666668,2126.6666666666665,79.5,2160,82C2193.3333333333335,84.5,2206.6666666666665,16.833333333333332,2240,21C2273.3333333333335,25.166666666666668,2286.6666666666665,100.125,2320,102C2353.3333333333335,103.875,2331.25,-32.08333333333333,2400,30C2468.75,92.08333333333333,3254.1666666666665,218.75,2650,400C2045.8333333333335,581.25,156.25,795.8333333333334,-500,900" transform="matrix(1,0,0,1,0,600)" opacity="0.53"></path><path d="M-10,10C8.75,14.166666666666668,44.583333333333336,37.5,80,30C115.41666666666666,22.5,126.66666666666666,-24.333333333333332,160,-26C193.33333333333334,-27.666666666666668,206.66666666666666,18.875,240,22C273.3333333333333,25.125,286.6666666666667,-13.5,320,-11C353.3333333333333,-8.5,366.6666666666667,36.708333333333336,400,34C433.3333333333333,31.291666666666668,446.6666666666667,-27.958333333333332,480,-24C513.3333333333334,-20.041666666666668,526.6666666666666,48.833333333333336,560,53C593.3333333333334,57.166666666666664,606.6666666666666,-5.25,640,-4C673.3333333333334,-2.75,686.6666666666666,62.75,720,59C753.3333333333334,55.25,766.6666666666666,-16.791666666666664,800,-22C833.3333333333334,-27.208333333333336,846.6666666666666,31.291666666666668,880,34C913.3333333333334,36.708333333333336,926.6666666666666,-15.666666666666666,960,-9C993.3333333333334,-2.333333333333334,1006.6666666666666,67.25,1040,66C1073.3333333333333,64.75,1086.6666666666667,-15.625,1120,-15C1153.3333333333333,-14.375,1166.6666666666667,65.875,1200,69C1233.3333333333333,72.125,1246.6666666666667,4.583333333333333,1280,0C1313.3333333333333,-4.583333333333333,1326.6666666666667,43.458333333333336,1360,47C1393.3333333333333,50.541666666666664,1406.6666666666667,10.125,1440,17C1473.3333333333333,23.875,1486.6666666666667,79.79166666666667,1520,80C1553.3333333333333,80.20833333333333,1566.6666666666667,16.333333333333332,1600,18C1633.3333333333333,19.666666666666668,1646.6666666666667,84.66666666666667,1680,88C1713.3333333333333,91.33333333333333,1726.6666666666667,40.25,1760,34C1793.3333333333333,27.75,1806.6666666666667,59.875,1840,58C1873.3333333333333,56.125,1886.6666666666667,24.166666666666668,1920,25C1953.3333333333333,25.833333333333332,1966.6666666666667,65.33333333333333,2000,62C2033.3333333333333,58.666666666666664,2046.6666666666667,4.833333333333333,2080,9C2113.3333333333335,13.166666666666668,2126.6666666666665,79.5,2160,82C2193.3333333333335,84.5,2206.6666666666665,16.833333333333332,2240,21C2273.3333333333335,25.166666666666668,2286.6666666666665,100.125,2320,102C2353.3333333333335,103.875,2331.25,-32.08333333333333,2400,30C2468.75,92.08333333333333,3254.1666666666665,218.75,2650,400C2045.8333333333335,581.25,156.25,795.8333333333334,-500,900" transform="matrix(1,0,0,1,0,700)" opacity="0.62"></path><path d="M-10,10C8.75,14.166666666666668,44.583333333333336,37.5,80,30C115.41666666666666,22.5,126.66666666666666,-24.333333333333332,160,-26C193.33333333333334,-27.666666666666668,206.66666666666666,18.875,240,22C273.3333333333333,25.125,286.6666666666667,-13.5,320,-11C353.3333333333333,-8.5,366.6666666666667,36.708333333333336,400,34C433.3333333333333,31.291666666666668,446.6666666666667,-27.958333333333332,480,-24C513.3333333333334,-20.041666666666668,526.6666666666666,48.833333333333336,560,53C593.3333333333334,57.166666666666664,606.6666666666666,-5.25,640,-4C673.3333333333334,-2.75,686.6666666666666,62.75,720,59C753.3333333333334,55.25,766.6666666666666,-16.791666666666664,800,-22C833.3333333333334,-27.208333333333336,846.6666666666666,31.291666666666668,880,34C913.3333333333334,36.708333333333336,926.6666666666666,-15.666666666666666,960,-9C993.3333333333334,-2.333333333333334,1006.6666666666666,67.25,1040,66C1073.3333333333333,64.75,1086.6666666666667,-15.625,1120,-15C1153.3333333333333,-14.375,1166.6666666666667,65.875,1200,69C1233.3333333333333,72.125,1246.6666666666667,4.583333333333333,1280,0C1313.3333333333333,-4.583333333333333,1326.6666666666667,43.458333333333336,1360,47C1393.3333333333333,50.541666666666664,1406.6666666666667,10.125,1440,17C1473.3333333333333,23.875,1486.6666666666667,79.79166666666667,1520,80C1553.3333333333333,80.20833333333333,1566.6666666666667,16.333333333333332,1600,18C1633.3333333333333,19.666666666666668,1646.6666666666667,84.66666666666667,1680,88C1713.3333333333333,91.33333333333333,1726.6666666666667,40.25,1760,34C1793.3333333333333,27.75,1806.6666666666667,59.875,1840,58C1873.3333333333333,56.125,1886.6666666666667,24.166666666666668,1920,25C1953.3333333333333,25.833333333333332,1966.6666666666667,65.33333333333333,2000,62C2033.3333333333333,58.666666666666664,2046.6666666666667,4.833333333333333,2080,9C2113.3333333333335,13.166666666666668,2126.6666666666665,79.5,2160,82C2193.3333333333335,84.5,2206.6666666666665,16.833333333333332,2240,21C2273.3333333333335,25.166666666666668,2286.6666666666665,100.125,2320,102C2353.3333333333335,103.875,2331.25,-32.08333333333333,2400,30C2468.75,92.08333333333333,3254.1666666666665,218.75,2650,400C2045.8333333333335,581.25,156.25,795.8333333333334,-500,900" transform="matrix(1,0,0,1,0,800)" opacity="0.72"></path><path d="M-10,10C8.75,14.166666666666668,44.583333333333336,37.5,80,30C115.41666666666666,22.5,126.66666666666666,-24.333333333333332,160,-26C193.33333333333334,-27.666666666666668,206.66666666666666,18.875,240,22C273.3333333333333,25.125,286.6666666666667,-13.5,320,-11C353.3333333333333,-8.5,366.6666666666667,36.708333333333336,400,34C433.3333333333333,31.291666666666668,446.6666666666667,-27.958333333333332,480,-24C513.3333333333334,-20.041666666666668,526.6666666666666,48.833333333333336,560,53C593.3333333333334,57.166666666666664,606.6666666666666,-5.25,640,-4C673.3333333333334,-2.75,686.6666666666666,62.75,720,59C753.3333333333334,55.25,766.6666666666666,-16.791666666666664,800,-22C833.3333333333334,-27.208333333333336,846.6666666666666,31.291666666666668,880,34C913.3333333333334,36.708333333333336,926.6666666666666,-15.666666666666666,960,-9C993.3333333333334,-2.333333333333334,1006.6666666666666,67.25,1040,66C1073.3333333333333,64.75,1086.6666666666667,-15.625,1120,-15C1153.3333333333333,-14.375,1166.6666666666667,65.875,1200,69C1233.3333333333333,72.125,1246.6666666666667,4.583333333333333,1280,0C1313.3333333333333,-4.583333333333333,1326.6666666666667,43.458333333333336,1360,47C1393.3333333333333,50.541666666666664,1406.6666666666667,10.125,1440,17C1473.3333333333333,23.875,1486.6666666666667,79.79166666666667,1520,80C1553.3333333333333,80.20833333333333,1566.6666666666667,16.333333333333332,1600,18C1633.3333333333333,19.666666666666668,1646.6666666666667,84.66666666666667,1680,88C1713.3333333333333,91.33333333333333,1726.6666666666667,40.25,1760,34C1793.3333333333333,27.75,1806.6666666666667,59.875,1840,58C1873.3333333333333,56.125,1886.6666666666667,24.166666666666668,1920,25C1953.3333333333333,25.833333333333332,1966.6666666666667,65.33333333333333,2000,62C2033.3333333333333,58.666666666666664,2046.6666666666667,4.833333333333333,2080,9C2113.3333333333335,13.166666666666668,2126.6666666666665,79.5,2160,82C2193.3333333333335,84.5,2206.6666666666665,16.833333333333332,2240,21C2273.3333333333335,25.166666666666668,2286.6666666666665,100.125,2320,102C2353.3333333333335,103.875,2331.25,-32.08333333333333,2400,30C2468.75,92.08333333333333,3254.1666666666665,218.75,2650,400C2045.8333333333335,581.25,156.25,795.8333333333334,-500,900" transform="matrix(1,0,0,1,0,900)" opacity="0.81"></path><path d="M-10,10C8.75,14.166666666666668,44.583333333333336,37.5,80,30C115.41666666666666,22.5,126.66666666666666,-24.333333333333332,160,-26C193.33333333333334,-27.666666666666668,206.66666666666666,18.875,240,22C273.3333333333333,25.125,286.6666666666667,-13.5,320,-11C353.3333333333333,-8.5,366.6666666666667,36.708333333333336,400,34C433.3333333333333,31.291666666666668,446.6666666666667,-27.958333333333332,480,-24C513.3333333333334,-20.041666666666668,526.6666666666666,48.833333333333336,560,53C593.3333333333334,57.166666666666664,606.6666666666666,-5.25,640,-4C673.3333333333334,-2.75,686.6666666666666,62.75,720,59C753.3333333333334,55.25,766.6666666666666,-16.791666666666664,800,-22C833.3333333333334,-27.208333333333336,846.6666666666666,31.291666666666668,880,34C913.3333333333334,36.708333333333336,926.6666666666666,-15.666666666666666,960,-9C993.3333333333334,-2.333333333333334,1006.6666666666666,67.25,1040,66C1073.3333333333333,64.75,1086.6666666666667,-15.625,1120,-15C1153.3333333333333,-14.375,1166.6666666666667,65.875,1200,69C1233.3333333333333,72.125,1246.6666666666667,4.583333333333333,1280,0C1313.3333333333333,-4.583333333333333,1326.6666666666667,43.458333333333336,1360,47C1393.3333333333333,50.541666666666664,1406.6666666666667,10.125,1440,17C1473.3333333333333,23.875,1486.6666666666667,79.79166666666667,1520,80C1553.3333333333333,80.20833333333333,1566.6666666666667,16.333333333333332,1600,18C1633.3333333333333,19.666666666666668,1646.6666666666667,84.66666666666667,1680,88C1713.3333333333333,91.33333333333333,1726.6666666666667,40.25,1760,34C1793.3333333333333,27.75,1806.6666666666667,59.875,1840,58C1873.3333333333333,56.125,1886.6666666666667,24.166666666666668,1920,25C1953.3333333333333,25.833333333333332,1966.6666666666667,65.33333333333333,2000,62C2033.3333333333333,58.666666666666664,2046.6666666666667,4.833333333333333,2080,9C2113.3333333333335,13.166666666666668,2126.6666666666665,79.5,2160,82C2193.3333333333335,84.5,2206.6666666666665,16.833333333333332,2240,21C2273.3333333333335,25.166666666666668,2286.6666666666665,100.125,2320,102C2353.3333333333335,103.875,2331.25,-32.08333333333333,2400,30C2468.75,92.08333333333333,3254.1666666666665,218.75,2650,400C2045.8333333333335,581.25,156.25,795.8333333333334,-500,900" transform="matrix(1,0,0,1,0,1000)" opacity="0.91"></path><path d="M-10,10C8.75,14.166666666666668,44.583333333333336,37.5,80,30C115.41666666666666,22.5,126.66666666666666,-24.333333333333332,160,-26C193.33333333333334,-27.666666666666668,206.66666666666666,18.875,240,22C273.3333333333333,25.125,286.6666666666667,-13.5,320,-11C353.3333333333333,-8.5,366.6666666666667,36.708333333333336,400,34C433.3333333333333,31.291666666666668,446.6666666666667,-27.958333333333332,480,-24C513.3333333333334,-20.041666666666668,526.6666666666666,48.833333333333336,560,53C593.3333333333334,57.166666666666664,606.6666666666666,-5.25,640,-4C673.3333333333334,-2.75,686.6666666666666,62.75,720,59C753.3333333333334,55.25,766.6666666666666,-16.791666666666664,800,-22C833.3333333333334,-27.208333333333336,846.6666666666666,31.291666666666668,880,34C913.3333333333334,36.708333333333336,926.6666666666666,-15.666666666666666,960,-9C993.3333333333334,-2.333333333333334,1006.6666666666666,67.25,1040,66C1073.3333333333333,64.75,1086.6666666666667,-15.625,1120,-15C1153.3333333333333,-14.375,1166.6666666666667,65.875,1200,69C1233.3333333333333,72.125,1246.6666666666667,4.583333333333333,1280,0C1313.3333333333333,-4.583333333333333,1326.6666666666667,43.458333333333336,1360,47C1393.3333333333333,50.541666666666664,1406.6666666666667,10.125,1440,17C1473.3333333333333,23.875,1486.6666666666667,79.79166666666667,1520,80C1553.3333333333333,80.20833333333333,1566.6666666666667,16.333333333333332,1600,18C1633.3333333333333,19.666666666666668,1646.6666666666667,84.66666666666667,1680,88C1713.3333333333333,91.33333333333333,1726.6666666666667,40.25,1760,34C1793.3333333333333,27.75,1806.6666666666667,59.875,1840,58C1873.3333333333333,56.125,1886.6666666666667,24.166666666666668,1920,25C1953.3333333333333,25.833333333333332,1966.6666666666667,65.33333333333333,2000,62C2033.3333333333333,58.666666666666664,2046.6666666666667,4.833333333333333,2080,9C2113.3333333333335,13.166666666666668,2126.6666666666665,79.5,2160,82C2193.3333333333335,84.5,2206.6666666666665,16.833333333333332,2240,21C2273.3333333333335,25.166666666666668,2286.6666666666665,100.125,2320,102C2353.3333333333335,103.875,2331.25,-32.08333333333333,2400,30C2468.75,92.08333333333333,3254.1666666666665,218.75,2650,400C2045.8333333333335,581.25,156.25,795.8333333333334,-500,900" transform="matrix(1,0,0,1,0,1100)" opacity="1.00"></path></g></svg>