<svg xmlns="http://www.w3.org/2000/svg" version="1.1" xmlns:xlink="http://www.w3.org/1999/xlink" xmlns:svgjs="http://svgjs.dev/svgjs" viewBox="0 0 2400 800"><defs><linearGradient x1="50%" y1="0%" x2="50%" y2="100%" id="sssurf-grad"><stop stop-color="hsla(192, 100%, 14%, 1)" stop-opacity="1" offset="0%"></stop><stop stop-color="hsla(270, 0%, 0%, 1)" stop-opacity="1" offset="100%"></stop></linearGradient></defs><g fill="url(#sssurf-grad)" transform="matrix(1,0,0,1,11.2362060546875,-858.5128784179688)"><path d="M-10,10C12.083333333333336,12.708333333333332,53.91666666666667,27.166666666666668,96,23C138.08333333333331,18.833333333333332,152,-12.916666666666668,192,-10C232,-7.083333333333333,248,35.333333333333336,288,37C328,38.666666666666664,344,1.541666666666667,384,-2C424,-5.541666666666667,440,25.833333333333336,480,20C520,14.166666666666666,536,-38.75,576,-30C616,-21.25,632,56.583333333333336,672,62C712,67.41666666666667,728,2.875,768,-4C808,-10.875,824,31.083333333333332,864,29C904,26.916666666666668,920,-17.958333333333332,960,-14C1000,-10.041666666666668,1016,42.375,1056,48C1096,53.625,1112,11.125,1152,13C1192,14.875,1208,55.958333333333336,1248,57C1288,58.041666666666664,1304,17.375,1344,18C1384,18.625,1400,64.375,1440,60C1480,55.625,1496,-2.7916666666666665,1536,-3C1576,-3.2083333333333335,1592,57.541666666666664,1632,59C1672,60.458333333333336,1688,4.416666666666667,1728,4C1768,3.5833333333333335,1784,53.458333333333336,1824,57C1864,60.541666666666664,1880,17.666666666666668,1920,21C1960,24.333333333333332,1976,76.125,2016,73C2056,69.875,2072,5.791666666666667,2112,6C2152,6.208333333333333,2168,72.75,2208,74C2248,75.25,2264,13.25,2304,12C2344,10.75,2327.9166666666665,-12.833333333333343,2400,68C2472.0833333333335,148.83333333333334,3254.1666666666665,226.66666666666669,2650,400C2045.8333333333335,573.3333333333333,156.25,795.8333333333334,-500,900" transform="matrix(1,0,0,1,0,136)" opacity="0.05"></path><path d="M-10,10C12.083333333333336,12.708333333333332,53.91666666666667,27.166666666666668,96,23C138.08333333333331,18.833333333333332,152,-12.916666666666668,192,-10C232,-7.083333333333333,248,35.333333333333336,288,37C328,38.666666666666664,344,1.541666666666667,384,-2C424,-5.541666666666667,440,25.833333333333336,480,20C520,14.166666666666666,536,-38.75,576,-30C616,-21.25,632,56.583333333333336,672,62C712,67.41666666666667,728,2.875,768,-4C808,-10.875,824,31.083333333333332,864,29C904,26.916666666666668,920,-17.958333333333332,960,-14C1000,-10.041666666666668,1016,42.375,1056,48C1096,53.625,1112,11.125,1152,13C1192,14.875,1208,55.958333333333336,1248,57C1288,58.041666666666664,1304,17.375,1344,18C1384,18.625,1400,64.375,1440,60C1480,55.625,1496,-2.7916666666666665,1536,-3C1576,-3.2083333333333335,1592,57.541666666666664,1632,59C1672,60.458333333333336,1688,4.416666666666667,1728,4C1768,3.5833333333333335,1784,53.458333333333336,1824,57C1864,60.541666666666664,1880,17.666666666666668,1920,21C1960,24.333333333333332,1976,76.125,2016,73C2056,69.875,2072,5.791666666666667,2112,6C2152,6.208333333333333,2168,72.75,2208,74C2248,75.25,2264,13.25,2304,12C2344,10.75,2327.9166666666665,-12.833333333333343,2400,68C2472.0833333333335,148.83333333333334,3254.1666666666665,226.66666666666669,2650,400C2045.8333333333335,573.3333333333333,156.25,795.8333333333334,-500,900" transform="matrix(1,0,0,1,0,272)" opacity="0.11"></path><path d="M-10,10C12.083333333333336,12.708333333333332,53.91666666666667,27.166666666666668,96,23C138.08333333333331,18.833333333333332,152,-12.916666666666668,192,-10C232,-7.083333333333333,248,35.333333333333336,288,37C328,38.666666666666664,344,1.541666666666667,384,-2C424,-5.541666666666667,440,25.833333333333336,480,20C520,14.166666666666666,536,-38.75,576,-30C616,-21.25,632,56.583333333333336,672,62C712,67.41666666666667,728,2.875,768,-4C808,-10.875,824,31.083333333333332,864,29C904,26.916666666666668,920,-17.958333333333332,960,-14C1000,-10.041666666666668,1016,42.375,1056,48C1096,53.625,1112,11.125,1152,13C1192,14.875,1208,55.958333333333336,1248,57C1288,58.041666666666664,1304,17.375,1344,18C1384,18.625,1400,64.375,1440,60C1480,55.625,1496,-2.7916666666666665,1536,-3C1576,-3.2083333333333335,1592,57.541666666666664,1632,59C1672,60.458333333333336,1688,4.416666666666667,1728,4C1768,3.5833333333333335,1784,53.458333333333336,1824,57C1864,60.541666666666664,1880,17.666666666666668,1920,21C1960,24.333333333333332,1976,76.125,2016,73C2056,69.875,2072,5.791666666666667,2112,6C2152,6.208333333333333,2168,72.75,2208,74C2248,75.25,2264,13.25,2304,12C2344,10.75,2327.9166666666665,-12.833333333333343,2400,68C2472.0833333333335,148.83333333333334,3254.1666666666665,226.66666666666669,2650,400C2045.8333333333335,573.3333333333333,156.25,795.8333333333334,-500,900" transform="matrix(1,0,0,1,0,408)" opacity="0.17"></path><path d="M-10,10C12.083333333333336,12.708333333333332,53.91666666666667,27.166666666666668,96,23C138.08333333333331,18.833333333333332,152,-12.916666666666668,192,-10C232,-7.083333333333333,248,35.333333333333336,288,37C328,38.666666666666664,344,1.541666666666667,384,-2C424,-5.541666666666667,440,25.833333333333336,480,20C520,14.166666666666666,536,-38.75,576,-30C616,-21.25,632,56.583333333333336,672,62C712,67.41666666666667,728,2.875,768,-4C808,-10.875,824,31.083333333333332,864,29C904,26.916666666666668,920,-17.958333333333332,960,-14C1000,-10.041666666666668,1016,42.375,1056,48C1096,53.625,1112,11.125,1152,13C1192,14.875,1208,55.958333333333336,1248,57C1288,58.041666666666664,1304,17.375,1344,18C1384,18.625,1400,64.375,1440,60C1480,55.625,1496,-2.7916666666666665,1536,-3C1576,-3.2083333333333335,1592,57.541666666666664,1632,59C1672,60.458333333333336,1688,4.416666666666667,1728,4C1768,3.5833333333333335,1784,53.458333333333336,1824,57C1864,60.541666666666664,1880,17.666666666666668,1920,21C1960,24.333333333333332,1976,76.125,2016,73C2056,69.875,2072,5.791666666666667,2112,6C2152,6.208333333333333,2168,72.75,2208,74C2248,75.25,2264,13.25,2304,12C2344,10.75,2327.9166666666665,-12.833333333333343,2400,68C2472.0833333333335,148.83333333333334,3254.1666666666665,226.66666666666669,2650,400C2045.8333333333335,573.3333333333333,156.25,795.8333333333334,-500,900" transform="matrix(1,0,0,1,0,544)" opacity="0.23"></path><path d="M-10,10C12.083333333333336,12.708333333333332,53.91666666666667,27.166666666666668,96,23C138.08333333333331,18.833333333333332,152,-12.916666666666668,192,-10C232,-7.083333333333333,248,35.333333333333336,288,37C328,38.666666666666664,344,1.541666666666667,384,-2C424,-5.541666666666667,440,25.833333333333336,480,20C520,14.166666666666666,536,-38.75,576,-30C616,-21.25,632,56.583333333333336,672,62C712,67.41666666666667,728,2.875,768,-4C808,-10.875,824,31.083333333333332,864,29C904,26.916666666666668,920,-17.958333333333332,960,-14C1000,-10.041666666666668,1016,42.375,1056,48C1096,53.625,1112,11.125,1152,13C1192,14.875,1208,55.958333333333336,1248,57C1288,58.041666666666664,1304,17.375,1344,18C1384,18.625,1400,64.375,1440,60C1480,55.625,1496,-2.7916666666666665,1536,-3C1576,-3.2083333333333335,1592,57.541666666666664,1632,59C1672,60.458333333333336,1688,4.416666666666667,1728,4C1768,3.5833333333333335,1784,53.458333333333336,1824,57C1864,60.541666666666664,1880,17.666666666666668,1920,21C1960,24.333333333333332,1976,76.125,2016,73C2056,69.875,2072,5.791666666666667,2112,6C2152,6.208333333333333,2168,72.75,2208,74C2248,75.25,2264,13.25,2304,12C2344,10.75,2327.9166666666665,-12.833333333333343,2400,68C2472.0833333333335,148.83333333333334,3254.1666666666665,226.66666666666669,2650,400C2045.8333333333335,573.3333333333333,156.25,795.8333333333334,-500,900" transform="matrix(1,0,0,1,0,680)" opacity="0.29"></path><path d="M-10,10C12.083333333333336,12.708333333333332,53.91666666666667,27.166666666666668,96,23C138.08333333333331,18.833333333333332,152,-12.916666666666668,192,-10C232,-7.083333333333333,248,35.333333333333336,288,37C328,38.666666666666664,344,1.541666666666667,384,-2C424,-5.541666666666667,440,25.833333333333336,480,20C520,14.166666666666666,536,-38.75,576,-30C616,-21.25,632,56.583333333333336,672,62C712,67.41666666666667,728,2.875,768,-4C808,-10.875,824,31.083333333333332,864,29C904,26.916666666666668,920,-17.958333333333332,960,-14C1000,-10.041666666666668,1016,42.375,1056,48C1096,53.625,1112,11.125,1152,13C1192,14.875,1208,55.958333333333336,1248,57C1288,58.041666666666664,1304,17.375,1344,18C1384,18.625,1400,64.375,1440,60C1480,55.625,1496,-2.7916666666666665,1536,-3C1576,-3.2083333333333335,1592,57.541666666666664,1632,59C1672,60.458333333333336,1688,4.416666666666667,1728,4C1768,3.5833333333333335,1784,53.458333333333336,1824,57C1864,60.541666666666664,1880,17.666666666666668,1920,21C1960,24.333333333333332,1976,76.125,2016,73C2056,69.875,2072,5.791666666666667,2112,6C2152,6.208333333333333,2168,72.75,2208,74C2248,75.25,2264,13.25,2304,12C2344,10.75,2327.9166666666665,-12.833333333333343,2400,68C2472.0833333333335,148.83333333333334,3254.1666666666665,226.66666666666669,2650,400C2045.8333333333335,573.3333333333333,156.25,795.8333333333334,-500,900" transform="matrix(1,0,0,1,0,816)" opacity="0.35"></path><path d="M-10,10C12.083333333333336,12.708333333333332,53.91666666666667,27.166666666666668,96,23C138.08333333333331,18.833333333333332,152,-12.916666666666668,192,-10C232,-7.083333333333333,248,35.333333333333336,288,37C328,38.666666666666664,344,1.541666666666667,384,-2C424,-5.541666666666667,440,25.833333333333336,480,20C520,14.166666666666666,536,-38.75,576,-30C616,-21.25,632,56.583333333333336,672,62C712,67.41666666666667,728,2.875,768,-4C808,-10.875,824,31.083333333333332,864,29C904,26.916666666666668,920,-17.958333333333332,960,-14C1000,-10.041666666666668,1016,42.375,1056,48C1096,53.625,1112,11.125,1152,13C1192,14.875,1208,55.958333333333336,1248,57C1288,58.041666666666664,1304,17.375,1344,18C1384,18.625,1400,64.375,1440,60C1480,55.625,1496,-2.7916666666666665,1536,-3C1576,-3.2083333333333335,1592,57.541666666666664,1632,59C1672,60.458333333333336,1688,4.416666666666667,1728,4C1768,3.5833333333333335,1784,53.458333333333336,1824,57C1864,60.541666666666664,1880,17.666666666666668,1920,21C1960,24.333333333333332,1976,76.125,2016,73C2056,69.875,2072,5.791666666666667,2112,6C2152,6.208333333333333,2168,72.75,2208,74C2248,75.25,2264,13.25,2304,12C2344,10.75,2327.9166666666665,-12.833333333333343,2400,68C2472.0833333333335,148.83333333333334,3254.1666666666665,226.66666666666669,2650,400C2045.8333333333335,573.3333333333333,156.25,795.8333333333334,-500,900" transform="matrix(1,0,0,1,0,952)" opacity="0.41"></path><path d="M-10,10C12.083333333333336,12.708333333333332,53.91666666666667,27.166666666666668,96,23C138.08333333333331,18.833333333333332,152,-12.916666666666668,192,-10C232,-7.083333333333333,248,35.333333333333336,288,37C328,38.666666666666664,344,1.541666666666667,384,-2C424,-5.541666666666667,440,25.833333333333336,480,20C520,14.166666666666666,536,-38.75,576,-30C616,-21.25,632,56.583333333333336,672,62C712,67.41666666666667,728,2.875,768,-4C808,-10.875,824,31.083333333333332,864,29C904,26.916666666666668,920,-17.958333333333332,960,-14C1000,-10.041666666666668,1016,42.375,1056,48C1096,53.625,1112,11.125,1152,13C1192,14.875,1208,55.958333333333336,1248,57C1288,58.041666666666664,1304,17.375,1344,18C1384,18.625,1400,64.375,1440,60C1480,55.625,1496,-2.7916666666666665,1536,-3C1576,-3.2083333333333335,1592,57.541666666666664,1632,59C1672,60.458333333333336,1688,4.416666666666667,1728,4C1768,3.5833333333333335,1784,53.458333333333336,1824,57C1864,60.541666666666664,1880,17.666666666666668,1920,21C1960,24.333333333333332,1976,76.125,2016,73C2056,69.875,2072,5.791666666666667,2112,6C2152,6.208333333333333,2168,72.75,2208,74C2248,75.25,2264,13.25,2304,12C2344,10.75,2327.9166666666665,-12.833333333333343,2400,68C2472.0833333333335,148.83333333333334,3254.1666666666665,226.66666666666669,2650,400C2045.8333333333335,573.3333333333333,156.25,795.8333333333334,-500,900" transform="matrix(1,0,0,1,0,1088)" opacity="0.47"></path><path d="M-10,10C12.083333333333336,12.708333333333332,53.91666666666667,27.166666666666668,96,23C138.08333333333331,18.833333333333332,152,-12.916666666666668,192,-10C232,-7.083333333333333,248,35.333333333333336,288,37C328,38.666666666666664,344,1.541666666666667,384,-2C424,-5.541666666666667,440,25.833333333333336,480,20C520,14.166666666666666,536,-38.75,576,-30C616,-21.25,632,56.583333333333336,672,62C712,67.41666666666667,728,2.875,768,-4C808,-10.875,824,31.083333333333332,864,29C904,26.916666666666668,920,-17.958333333333332,960,-14C1000,-10.041666666666668,1016,42.375,1056,48C1096,53.625,1112,11.125,1152,13C1192,14.875,1208,55.958333333333336,1248,57C1288,58.041666666666664,1304,17.375,1344,18C1384,18.625,1400,64.375,1440,60C1480,55.625,1496,-2.7916666666666665,1536,-3C1576,-3.2083333333333335,1592,57.541666666666664,1632,59C1672,60.458333333333336,1688,4.416666666666667,1728,4C1768,3.5833333333333335,1784,53.458333333333336,1824,57C1864,60.541666666666664,1880,17.666666666666668,1920,21C1960,24.333333333333332,1976,76.125,2016,73C2056,69.875,2072,5.791666666666667,2112,6C2152,6.208333333333333,2168,72.75,2208,74C2248,75.25,2264,13.25,2304,12C2344,10.75,2327.9166666666665,-12.833333333333343,2400,68C2472.0833333333335,148.83333333333334,3254.1666666666665,226.66666666666669,2650,400C2045.8333333333335,573.3333333333333,156.25,795.8333333333334,-500,900" transform="matrix(1,0,0,1,0,1224)" opacity="0.53"></path><path d="M-10,10C12.083333333333336,12.708333333333332,53.91666666666667,27.166666666666668,96,23C138.08333333333331,18.833333333333332,152,-12.916666666666668,192,-10C232,-7.083333333333333,248,35.333333333333336,288,37C328,38.666666666666664,344,1.541666666666667,384,-2C424,-5.541666666666667,440,25.833333333333336,480,20C520,14.166666666666666,536,-38.75,576,-30C616,-21.25,632,56.583333333333336,672,62C712,67.41666666666667,728,2.875,768,-4C808,-10.875,824,31.083333333333332,864,29C904,26.916666666666668,920,-17.958333333333332,960,-14C1000,-10.041666666666668,1016,42.375,1056,48C1096,53.625,1112,11.125,1152,13C1192,14.875,1208,55.958333333333336,1248,57C1288,58.041666666666664,1304,17.375,1344,18C1384,18.625,1400,64.375,1440,60C1480,55.625,1496,-2.7916666666666665,1536,-3C1576,-3.2083333333333335,1592,57.541666666666664,1632,59C1672,60.458333333333336,1688,4.416666666666667,1728,4C1768,3.5833333333333335,1784,53.458333333333336,1824,57C1864,60.541666666666664,1880,17.666666666666668,1920,21C1960,24.333333333333332,1976,76.125,2016,73C2056,69.875,2072,5.791666666666667,2112,6C2152,6.208333333333333,2168,72.75,2208,74C2248,75.25,2264,13.25,2304,12C2344,10.75,2327.9166666666665,-12.833333333333343,2400,68C2472.0833333333335,148.83333333333334,3254.1666666666665,226.66666666666669,2650,400C2045.8333333333335,573.3333333333333,156.25,795.8333333333334,-500,900" transform="matrix(1,0,0,1,0,1360)" opacity="0.58"></path><path d="M-10,10C12.083333333333336,12.708333333333332,53.91666666666667,27.166666666666668,96,23C138.08333333333331,18.833333333333332,152,-12.916666666666668,192,-10C232,-7.083333333333333,248,35.333333333333336,288,37C328,38.666666666666664,344,1.541666666666667,384,-2C424,-5.541666666666667,440,25.833333333333336,480,20C520,14.166666666666666,536,-38.75,576,-30C616,-21.25,632,56.583333333333336,672,62C712,67.41666666666667,728,2.875,768,-4C808,-10.875,824,31.083333333333332,864,29C904,26.916666666666668,920,-17.958333333333332,960,-14C1000,-10.041666666666668,1016,42.375,1056,48C1096,53.625,1112,11.125,1152,13C1192,14.875,1208,55.958333333333336,1248,57C1288,58.041666666666664,1304,17.375,1344,18C1384,18.625,1400,64.375,1440,60C1480,55.625,1496,-2.7916666666666665,1536,-3C1576,-3.2083333333333335,1592,57.541666666666664,1632,59C1672,60.458333333333336,1688,4.416666666666667,1728,4C1768,3.5833333333333335,1784,53.458333333333336,1824,57C1864,60.541666666666664,1880,17.666666666666668,1920,21C1960,24.333333333333332,1976,76.125,2016,73C2056,69.875,2072,5.791666666666667,2112,6C2152,6.208333333333333,2168,72.75,2208,74C2248,75.25,2264,13.25,2304,12C2344,10.75,2327.9166666666665,-12.833333333333343,2400,68C2472.0833333333335,148.83333333333334,3254.1666666666665,226.66666666666669,2650,400C2045.8333333333335,573.3333333333333,156.25,795.8333333333334,-500,900" transform="matrix(1,0,0,1,0,1496)" opacity="0.64"></path><path d="M-10,10C12.083333333333336,12.708333333333332,53.91666666666667,27.166666666666668,96,23C138.08333333333331,18.833333333333332,152,-12.916666666666668,192,-10C232,-7.083333333333333,248,35.333333333333336,288,37C328,38.666666666666664,344,1.541666666666667,384,-2C424,-5.541666666666667,440,25.833333333333336,480,20C520,14.166666666666666,536,-38.75,576,-30C616,-21.25,632,56.583333333333336,672,62C712,67.41666666666667,728,2.875,768,-4C808,-10.875,824,31.083333333333332,864,29C904,26.916666666666668,920,-17.958333333333332,960,-14C1000,-10.041666666666668,1016,42.375,1056,48C1096,53.625,1112,11.125,1152,13C1192,14.875,1208,55.958333333333336,1248,57C1288,58.041666666666664,1304,17.375,1344,18C1384,18.625,1400,64.375,1440,60C1480,55.625,1496,-2.7916666666666665,1536,-3C1576,-3.2083333333333335,1592,57.541666666666664,1632,59C1672,60.458333333333336,1688,4.416666666666667,1728,4C1768,3.5833333333333335,1784,53.458333333333336,1824,57C1864,60.541666666666664,1880,17.666666666666668,1920,21C1960,24.333333333333332,1976,76.125,2016,73C2056,69.875,2072,5.791666666666667,2112,6C2152,6.208333333333333,2168,72.75,2208,74C2248,75.25,2264,13.25,2304,12C2344,10.75,2327.9166666666665,-12.833333333333343,2400,68C2472.0833333333335,148.83333333333334,3254.1666666666665,226.66666666666669,2650,400C2045.8333333333335,573.3333333333333,156.25,795.8333333333334,-500,900" transform="matrix(1,0,0,1,0,1632)" opacity="0.70"></path><path d="M-10,10C12.083333333333336,12.708333333333332,53.91666666666667,27.166666666666668,96,23C138.08333333333331,18.833333333333332,152,-12.916666666666668,192,-10C232,-7.083333333333333,248,35.333333333333336,288,37C328,38.666666666666664,344,1.541666666666667,384,-2C424,-5.541666666666667,440,25.833333333333336,480,20C520,14.166666666666666,536,-38.75,576,-30C616,-21.25,632,56.583333333333336,672,62C712,67.41666666666667,728,2.875,768,-4C808,-10.875,824,31.083333333333332,864,29C904,26.916666666666668,920,-17.958333333333332,960,-14C1000,-10.041666666666668,1016,42.375,1056,48C1096,53.625,1112,11.125,1152,13C1192,14.875,1208,55.958333333333336,1248,57C1288,58.041666666666664,1304,17.375,1344,18C1384,18.625,1400,64.375,1440,60C1480,55.625,1496,-2.7916666666666665,1536,-3C1576,-3.2083333333333335,1592,57.541666666666664,1632,59C1672,60.458333333333336,1688,4.416666666666667,1728,4C1768,3.5833333333333335,1784,53.458333333333336,1824,57C1864,60.541666666666664,1880,17.666666666666668,1920,21C1960,24.333333333333332,1976,76.125,2016,73C2056,69.875,2072,5.791666666666667,2112,6C2152,6.208333333333333,2168,72.75,2208,74C2248,75.25,2264,13.25,2304,12C2344,10.75,2327.9166666666665,-12.833333333333343,2400,68C2472.0833333333335,148.83333333333334,3254.1666666666665,226.66666666666669,2650,400C2045.8333333333335,573.3333333333333,156.25,795.8333333333334,-500,900" transform="matrix(1,0,0,1,0,1768)" opacity="0.76"></path><path d="M-10,10C12.083333333333336,12.708333333333332,53.91666666666667,27.166666666666668,96,23C138.08333333333331,18.833333333333332,152,-12.916666666666668,192,-10C232,-7.083333333333333,248,35.333333333333336,288,37C328,38.666666666666664,344,1.541666666666667,384,-2C424,-5.541666666666667,440,25.833333333333336,480,20C520,14.166666666666666,536,-38.75,576,-30C616,-21.25,632,56.583333333333336,672,62C712,67.41666666666667,728,2.875,768,-4C808,-10.875,824,31.083333333333332,864,29C904,26.916666666666668,920,-17.958333333333332,960,-14C1000,-10.041666666666668,1016,42.375,1056,48C1096,53.625,1112,11.125,1152,13C1192,14.875,1208,55.958333333333336,1248,57C1288,58.041666666666664,1304,17.375,1344,18C1384,18.625,1400,64.375,1440,60C1480,55.625,1496,-2.7916666666666665,1536,-3C1576,-3.2083333333333335,1592,57.541666666666664,1632,59C1672,60.458333333333336,1688,4.416666666666667,1728,4C1768,3.5833333333333335,1784,53.458333333333336,1824,57C1864,60.541666666666664,1880,17.666666666666668,1920,21C1960,24.333333333333332,1976,76.125,2016,73C2056,69.875,2072,5.791666666666667,2112,6C2152,6.208333333333333,2168,72.75,2208,74C2248,75.25,2264,13.25,2304,12C2344,10.75,2327.9166666666665,-12.833333333333343,2400,68C2472.0833333333335,148.83333333333334,3254.1666666666665,226.66666666666669,2650,400C2045.8333333333335,573.3333333333333,156.25,795.8333333333334,-500,900" transform="matrix(1,0,0,1,0,1904)" opacity="0.82"></path><path d="M-10,10C12.083333333333336,12.708333333333332,53.91666666666667,27.166666666666668,96,23C138.08333333333331,18.833333333333332,152,-12.916666666666668,192,-10C232,-7.083333333333333,248,35.333333333333336,288,37C328,38.666666666666664,344,1.541666666666667,384,-2C424,-5.541666666666667,440,25.833333333333336,480,20C520,14.166666666666666,536,-38.75,576,-30C616,-21.25,632,56.583333333333336,672,62C712,67.41666666666667,728,2.875,768,-4C808,-10.875,824,31.083333333333332,864,29C904,26.916666666666668,920,-17.958333333333332,960,-14C1000,-10.041666666666668,1016,42.375,1056,48C1096,53.625,1112,11.125,1152,13C1192,14.875,1208,55.958333333333336,1248,57C1288,58.041666666666664,1304,17.375,1344,18C1384,18.625,1400,64.375,1440,60C1480,55.625,1496,-2.7916666666666665,1536,-3C1576,-3.2083333333333335,1592,57.541666666666664,1632,59C1672,60.458333333333336,1688,4.416666666666667,1728,4C1768,3.5833333333333335,1784,53.458333333333336,1824,57C1864,60.541666666666664,1880,17.666666666666668,1920,21C1960,24.333333333333332,1976,76.125,2016,73C2056,69.875,2072,5.791666666666667,2112,6C2152,6.208333333333333,2168,72.75,2208,74C2248,75.25,2264,13.25,2304,12C2344,10.75,2327.9166666666665,-12.833333333333343,2400,68C2472.0833333333335,148.83333333333334,3254.1666666666665,226.66666666666669,2650,400C2045.8333333333335,573.3333333333333,156.25,795.8333333333334,-500,900" transform="matrix(1,0,0,1,0,2040)" opacity="0.88"></path><path d="M-10,10C12.083333333333336,12.708333333333332,53.91666666666667,27.166666666666668,96,23C138.08333333333331,18.833333333333332,152,-12.916666666666668,192,-10C232,-7.083333333333333,248,35.333333333333336,288,37C328,38.666666666666664,344,1.541666666666667,384,-2C424,-5.541666666666667,440,25.833333333333336,480,20C520,14.166666666666666,536,-38.75,576,-30C616,-21.25,632,56.583333333333336,672,62C712,67.41666666666667,728,2.875,768,-4C808,-10.875,824,31.083333333333332,864,29C904,26.916666666666668,920,-17.958333333333332,960,-14C1000,-10.041666666666668,1016,42.375,1056,48C1096,53.625,1112,11.125,1152,13C1192,14.875,1208,55.958333333333336,1248,57C1288,58.041666666666664,1304,17.375,1344,18C1384,18.625,1400,64.375,1440,60C1480,55.625,1496,-2.7916666666666665,1536,-3C1576,-3.2083333333333335,1592,57.541666666666664,1632,59C1672,60.458333333333336,1688,4.416666666666667,1728,4C1768,3.5833333333333335,1784,53.458333333333336,1824,57C1864,60.541666666666664,1880,17.666666666666668,1920,21C1960,24.333333333333332,1976,76.125,2016,73C2056,69.875,2072,5.791666666666667,2112,6C2152,6.208333333333333,2168,72.75,2208,74C2248,75.25,2264,13.25,2304,12C2344,10.75,2327.9166666666665,-12.833333333333343,2400,68C2472.0833333333335,148.83333333333334,3254.1666666666665,226.66666666666669,2650,400C2045.8333333333335,573.3333333333333,156.25,795.8333333333334,-500,900" transform="matrix(1,0,0,1,0,2176)" opacity="0.94"></path><path d="M-10,10C12.083333333333336,12.708333333333332,53.91666666666667,27.166666666666668,96,23C138.08333333333331,18.833333333333332,152,-12.916666666666668,192,-10C232,-7.083333333333333,248,35.333333333333336,288,37C328,38.666666666666664,344,1.541666666666667,384,-2C424,-5.541666666666667,440,25.833333333333336,480,20C520,14.166666666666666,536,-38.75,576,-30C616,-21.25,632,56.583333333333336,672,62C712,67.41666666666667,728,2.875,768,-4C808,-10.875,824,31.083333333333332,864,29C904,26.916666666666668,920,-17.958333333333332,960,-14C1000,-10.041666666666668,1016,42.375,1056,48C1096,53.625,1112,11.125,1152,13C1192,14.875,1208,55.958333333333336,1248,57C1288,58.041666666666664,1304,17.375,1344,18C1384,18.625,1400,64.375,1440,60C1480,55.625,1496,-2.7916666666666665,1536,-3C1576,-3.2083333333333335,1592,57.541666666666664,1632,59C1672,60.458333333333336,1688,4.416666666666667,1728,4C1768,3.5833333333333335,1784,53.458333333333336,1824,57C1864,60.541666666666664,1880,17.666666666666668,1920,21C1960,24.333333333333332,1976,76.125,2016,73C2056,69.875,2072,5.791666666666667,2112,6C2152,6.208333333333333,2168,72.75,2208,74C2248,75.25,2264,13.25,2304,12C2344,10.75,2327.9166666666665,-12.833333333333343,2400,68C2472.0833333333335,148.83333333333334,3254.1666666666665,226.66666666666669,2650,400C2045.8333333333335,573.3333333333333,156.25,795.8333333333334,-500,900" transform="matrix(1,0,0,1,0,2312)" opacity="1.00"></path></g></svg>