<?xml version="1.0" standalone="no"?><svg xmlns="http://www.w3.org/2000/svg" viewBox="0 0 1440 320"><path fill="#273036" fill-opacity="1" d="M0,160L0,64L36.9,64L36.9,64L73.8,64L73.8,32L110.8,32L110.8,96L147.7,96L147.7,160L184.6,160L184.6,64L221.5,64L221.5,160L258.5,160L258.5,64L295.4,64L295.4,64L332.3,64L332.3,0L369.2,0L369.2,192L406.2,192L406.2,160L443.1,160L443.1,128L480,128L480,288L516.9,288L516.9,320L553.8,320L553.8,256L590.8,256L590.8,288L627.7,288L627.7,192L664.6,192L664.6,160L701.5,160L701.5,192L738.5,192L738.5,160L775.4,160L775.4,32L812.3,32L812.3,192L849.2,192L849.2,96L886.2,96L886.2,160L923.1,160L923.1,256L960,256L960,96L996.9,96L996.9,320L1033.8,320L1033.8,160L1070.8,160L1070.8,256L1107.7,256L1107.7,128L1144.6,128L1144.6,224L1181.5,224L1181.5,288L1218.5,288L1218.5,128L1255.4,128L1255.4,96L1292.3,96L1292.3,160L1329.2,160L1329.2,224L1366.2,224L1366.2,192L1403.1,192L1403.1,288L1440,288L1440,320L1403.1,320L1403.1,320L1366.2,320L1366.2,320L1329.2,320L1329.2,320L1292.3,320L1292.3,320L1255.4,320L1255.4,320L1218.5,320L1218.5,320L1181.5,320L1181.5,320L1144.6,320L1144.6,320L1107.7,320L1107.7,320L1070.8,320L1070.8,320L1033.8,320L1033.8,320L996.9,320L996.9,320L960,320L960,320L923.1,320L923.1,320L886.2,320L886.2,320L849.2,320L849.2,320L812.3,320L812.3,320L775.4,320L775.4,320L738.5,320L738.5,320L701.5,320L701.5,320L664.6,320L664.6,320L627.7,320L627.7,320L590.8,320L590.8,320L553.8,320L553.8,320L516.9,320L516.9,320L480,320L480,320L443.1,320L443.1,320L406.2,320L406.2,320L369.2,320L369.2,320L332.3,320L332.3,320L295.4,320L295.4,320L258.5,320L258.5,320L221.5,320L221.5,320L184.6,320L184.6,320L147.7,320L147.7,320L110.8,320L110.8,320L73.8,320L73.8,320L36.9,320L36.9,320L0,320L0,320Z"></path></svg>