<?xml version="1.0" standalone="no"?><svg xmlns="http://www.w3.org/2000/svg" viewBox="0 0 1440 320"><path fill="#273036" fill-opacity="1" d="M0,96L26.7,106.7C53.3,117,107,139,160,170.7C213.3,203,267,245,320,256C373.3,267,427,245,480,240C533.3,235,587,245,640,218.7C693.3,192,747,128,800,101.3C853.3,75,907,85,960,106.7C1013.3,128,1067,160,1120,170.7C1173.3,181,1227,171,1280,176C1333.3,181,1387,203,1413,213.3L1440,224L1440,320L1413.3,320C1386.7,320,1333,320,1280,320C1226.7,320,1173,320,1120,320C1066.7,320,1013,320,960,320C906.7,320,853,320,800,320C746.7,320,693,320,640,320C586.7,320,533,320,480,320C426.7,320,373,320,320,320C266.7,320,213,320,160,320C106.7,320,53,320,27,320L0,320Z"></path></svg>