<?xml version="1.0" standalone="no"?><svg xmlns="http://www.w3.org/2000/svg" viewBox="0 0 1440 320"><path fill="#273036" fill-opacity="1" d="M0,32L0,192L96,192L96,160L192,160L192,64L288,64L288,96L384,96L384,224L480,224L480,288L576,288L576,96L672,96L672,256L768,256L768,320L864,320L864,160L960,160L960,224L1056,224L1056,128L1152,128L1152,160L1248,160L1248,128L1344,128L1344,256L1440,256L1440,0L1344,0L1344,0L1248,0L1248,0L1152,0L1152,0L1056,0L1056,0L960,0L960,0L864,0L864,0L768,0L768,0L672,0L672,0L576,0L576,0L480,0L480,0L384,0L384,0L288,0L288,0L192,0L192,0L96,0L96,0L0,0L0,0Z"></path></svg>