<?xml version="1.0" standalone="no"?><svg xmlns="http://www.w3.org/2000/svg" viewBox="0 0 1440 320"><path fill="#f3f4f5" fill-opacity="1" d="M0,192L0,128L36.9,128L36.9,192L73.8,192L73.8,64L110.8,64L110.8,32L147.7,32L147.7,0L184.6,0L184.6,0L221.5,0L221.5,288L258.5,288L258.5,192L295.4,192L295.4,160L332.3,160L332.3,96L369.2,96L369.2,288L406.2,288L406.2,128L443.1,128L443.1,288L480,288L480,160L516.9,160L516.9,288L553.8,288L553.8,256L590.8,256L590.8,192L627.7,192L627.7,288L664.6,288L664.6,160L701.5,160L701.5,192L738.5,192L738.5,256L775.4,256L775.4,128L812.3,128L812.3,288L849.2,288L849.2,192L886.2,192L886.2,224L923.1,224L923.1,160L960,160L960,256L996.9,256L996.9,96L1033.8,96L1033.8,192L1070.8,192L1070.8,256L1107.7,256L1107.7,224L1144.6,224L1144.6,128L1181.5,128L1181.5,160L1218.5,160L1218.5,0L1255.4,0L1255.4,96L1292.3,96L1292.3,224L1329.2,224L1329.2,160L1366.2,160L1366.2,256L1403.1,256L1403.1,288L1440,288L1440,0L1403.1,0L1403.1,0L1366.2,0L1366.2,0L1329.2,0L1329.2,0L1292.3,0L1292.3,0L1255.4,0L1255.4,0L1218.5,0L1218.5,0L1181.5,0L1181.5,0L1144.6,0L1144.6,0L1107.7,0L1107.7,0L1070.8,0L1070.8,0L1033.8,0L1033.8,0L996.9,0L996.9,0L960,0L960,0L923.1,0L923.1,0L886.2,0L886.2,0L849.2,0L849.2,0L812.3,0L812.3,0L775.4,0L775.4,0L738.5,0L738.5,0L701.5,0L701.5,0L664.6,0L664.6,0L627.7,0L627.7,0L590.8,0L590.8,0L553.8,0L553.8,0L516.9,0L516.9,0L480,0L480,0L443.1,0L443.1,0L406.2,0L406.2,0L369.2,0L369.2,0L332.3,0L332.3,0L295.4,0L295.4,0L258.5,0L258.5,0L221.5,0L221.5,0L184.6,0L184.6,0L147.7,0L147.7,0L110.8,0L110.8,0L73.8,0L73.8,0L36.9,0L36.9,0L0,0L0,0Z"></path></svg>