<?xml version="1.0" standalone="no"?><svg xmlns="http://www.w3.org/2000/svg" viewBox="0 0 1440 320"><path fill="#273036" fill-opacity="1" d="M0,96L0,128L36.9,128L36.9,224L73.8,224L73.8,256L110.8,256L110.8,224L147.7,224L147.7,224L184.6,224L184.6,0L221.5,0L221.5,32L258.5,32L258.5,128L295.4,128L295.4,128L332.3,128L332.3,320L369.2,320L369.2,128L406.2,128L406.2,192L443.1,192L443.1,128L480,128L480,320L516.9,320L516.9,224L553.8,224L553.8,192L590.8,192L590.8,288L627.7,288L627.7,0L664.6,0L664.6,224L701.5,224L701.5,256L738.5,256L738.5,320L775.4,320L775.4,160L812.3,160L812.3,160L849.2,160L849.2,288L886.2,288L886.2,128L923.1,128L923.1,160L960,160L960,224L996.9,224L996.9,160L1033.8,160L1033.8,160L1070.8,160L1070.8,256L1107.7,256L1107.7,192L1144.6,192L1144.6,320L1181.5,320L1181.5,320L1218.5,320L1218.5,32L1255.4,32L1255.4,288L1292.3,288L1292.3,64L1329.2,64L1329.2,96L1366.2,96L1366.2,160L1403.1,160L1403.1,64L1440,64L1440,0L1403.1,0L1403.1,0L1366.2,0L1366.2,0L1329.2,0L1329.2,0L1292.3,0L1292.3,0L1255.4,0L1255.4,0L1218.5,0L1218.5,0L1181.5,0L1181.5,0L1144.6,0L1144.6,0L1107.7,0L1107.7,0L1070.8,0L1070.8,0L1033.8,0L1033.8,0L996.9,0L996.9,0L960,0L960,0L923.1,0L923.1,0L886.2,0L886.2,0L849.2,0L849.2,0L812.3,0L812.3,0L775.4,0L775.4,0L738.5,0L738.5,0L701.5,0L701.5,0L664.6,0L664.6,0L627.7,0L627.7,0L590.8,0L590.8,0L553.8,0L553.8,0L516.9,0L516.9,0L480,0L480,0L443.1,0L443.1,0L406.2,0L406.2,0L369.2,0L369.2,0L332.3,0L332.3,0L295.4,0L295.4,0L258.5,0L258.5,0L221.5,0L221.5,0L184.6,0L184.6,0L147.7,0L147.7,0L110.8,0L110.8,0L73.8,0L73.8,0L36.9,0L36.9,0L0,0L0,0Z"></path></svg>