<?xml version="1.0" standalone="no"?><svg xmlns="http://www.w3.org/2000/svg" viewBox="0 0 1440 320"><path fill="#273036" fill-opacity="1" d="M0,256L0,256L36.9,256L36.9,128L73.8,128L73.8,224L110.8,224L110.8,96L147.7,96L147.7,128L184.6,128L184.6,96L221.5,96L221.5,32L258.5,32L258.5,32L295.4,32L295.4,192L332.3,192L332.3,288L369.2,288L369.2,192L406.2,192L406.2,96L443.1,96L443.1,224L480,224L480,96L516.9,96L516.9,160L553.8,160L553.8,128L590.8,128L590.8,320L627.7,320L627.7,192L664.6,192L664.6,32L701.5,32L701.5,192L738.5,192L738.5,0L775.4,0L775.4,160L812.3,160L812.3,224L849.2,224L849.2,160L886.2,160L886.2,320L923.1,320L923.1,320L960,320L960,96L996.9,96L996.9,32L1033.8,32L1033.8,0L1070.8,0L1070.8,128L1107.7,128L1107.7,128L1144.6,128L1144.6,192L1181.5,192L1181.5,160L1218.5,160L1218.5,64L1255.4,64L1255.4,224L1292.3,224L1292.3,96L1329.2,96L1329.2,32L1366.2,32L1366.2,256L1403.1,256L1403.1,0L1440,0L1440,0L1403.1,0L1403.1,0L1366.2,0L1366.2,0L1329.2,0L1329.2,0L1292.3,0L1292.3,0L1255.4,0L1255.4,0L1218.5,0L1218.5,0L1181.5,0L1181.5,0L1144.6,0L1144.6,0L1107.7,0L1107.7,0L1070.8,0L1070.8,0L1033.8,0L1033.8,0L996.9,0L996.9,0L960,0L960,0L923.1,0L923.1,0L886.2,0L886.2,0L849.2,0L849.2,0L812.3,0L812.3,0L775.4,0L775.4,0L738.5,0L738.5,0L701.5,0L701.5,0L664.6,0L664.6,0L627.7,0L627.7,0L590.8,0L590.8,0L553.8,0L553.8,0L516.9,0L516.9,0L480,0L480,0L443.1,0L443.1,0L406.2,0L406.2,0L369.2,0L369.2,0L332.3,0L332.3,0L295.4,0L295.4,0L258.5,0L258.5,0L221.5,0L221.5,0L184.6,0L184.6,0L147.7,0L147.7,0L110.8,0L110.8,0L73.8,0L73.8,0L36.9,0L36.9,0L0,0L0,0Z"></path></svg>