<?xml version="1.0" standalone="no"?><svg xmlns="http://www.w3.org/2000/svg" viewBox="0 0 1440 320"><path fill="#273036" fill-opacity="1" d="M0,96L36.9,128L73.8,224L110.8,256L147.7,224L184.6,224L221.5,0L258.5,32L295.4,128L332.3,128L369.2,320L406.2,128L443.1,192L480,128L516.9,320L553.8,224L590.8,192L627.7,288L664.6,0L701.5,224L738.5,256L775.4,320L812.3,160L849.2,160L886.2,288L923.1,128L960,160L996.9,224L1033.8,160L1070.8,160L1107.7,256L1144.6,192L1181.5,320L1218.5,320L1255.4,32L1292.3,288L1329.2,64L1366.2,96L1403.1,160L1440,64L1440,0L1403.1,0L1366.2,0L1329.2,0L1292.3,0L1255.4,0L1218.5,0L1181.5,0L1144.6,0L1107.7,0L1070.8,0L1033.8,0L996.9,0L960,0L923.1,0L886.2,0L849.2,0L812.3,0L775.4,0L738.5,0L701.5,0L664.6,0L627.7,0L590.8,0L553.8,0L516.9,0L480,0L443.1,0L406.2,0L369.2,0L332.3,0L295.4,0L258.5,0L221.5,0L184.6,0L147.7,0L110.8,0L73.8,0L36.9,0L0,0Z"></path></svg>