<?xml version="1.0" standalone="no"?><svg xmlns="http://www.w3.org/2000/svg" viewBox="0 0 1440 320"><path fill="#273036" fill-opacity="1" d="M0,96L0,128L36.9,128L36.9,224L73.8,224L73.8,256L110.8,256L110.8,224L147.7,224L147.7,224L184.6,224L184.6,0L221.5,0L221.5,32L258.5,32L258.5,128L295.4,128L295.4,128L332.3,128L332.3,320L369.2,320L369.2,128L406.2,128L406.2,192L443.1,192L443.1,128L480,128L480,320L516.9,320L516.9,224L553.8,224L553.8,192L590.8,192L590.8,288L627.7,288L627.7,0L664.6,0L664.6,224L701.5,224L701.5,256L738.5,256L738.5,320L775.4,320L775.4,160L812.3,160L812.3,160L849.2,160L849.2,288L886.2,288L886.2,128L923.1,128L923.1,160L960,160L960,224L996.9,224L996.9,160L1033.8,160L1033.8,160L1070.8,160L1070.8,256L1107.7,256L1107.7,192L1144.6,192L1144.6,320L1181.5,320L1181.5,320L1218.5,320L1218.5,32L1255.4,32L1255.4,288L1292.3,288L1292.3,64L1329.2,64L1329.2,96L1366.2,96L1366.2,160L1403.1,160L1403.1,64L1440,64L1440,320L1403.1,320L1403.1,320L1366.2,320L1366.2,320L1329.2,320L1329.2,320L1292.3,320L1292.3,320L1255.4,320L1255.4,320L1218.5,320L1218.5,320L1181.5,320L1181.5,320L1144.6,320L1144.6,320L1107.7,320L1107.7,320L1070.8,320L1070.8,320L1033.8,320L1033.8,320L996.9,320L996.9,320L960,320L960,320L923.1,320L923.1,320L886.2,320L886.2,320L849.2,320L849.2,320L812.3,320L812.3,320L775.4,320L775.4,320L738.5,320L738.5,320L701.5,320L701.5,320L664.6,320L664.6,320L627.7,320L627.7,320L590.8,320L590.8,320L553.8,320L553.8,320L516.9,320L516.9,320L480,320L480,320L443.1,320L443.1,320L406.2,320L406.2,320L369.2,320L369.2,320L332.3,320L332.3,320L295.4,320L295.4,320L258.5,320L258.5,320L221.5,320L221.5,320L184.6,320L184.6,320L147.7,320L147.7,320L110.8,320L110.8,320L73.8,320L73.8,320L36.9,320L36.9,320L0,320L0,320Z"></path></svg>